<?xml version="1.0" encoding="UTF-8"?>
<svg xmlns="http://www.w3.org/2000/svg" xmlns:xlink="http://www.w3.org/1999/xlink" width="518pt" height="324pt" viewBox="0 0 518 324">
<defs>
<g>
<g id="glyph-0-0">
<path d="M 4.65625 -0.796875 L 1.21875 -0.796875 C 1.296875 -1.34375 1.59375 -1.703125 2.390625 -2.1875 L 3.3125 -2.703125 C 4.21875 -3.203125 4.6875 -3.890625 4.6875 -4.703125 C 4.6875 -5.25 4.46875 -5.765625 4.09375 -6.125 C 3.703125 -6.484375 3.21875 -6.640625 2.609375 -6.640625 C 1.78125 -6.640625 1.171875 -6.34375 0.8125 -5.78125 C 0.578125 -5.4375 0.484375 -5.015625 0.453125 -4.34375 L 1.265625 -4.34375 C 1.296875 -4.796875 1.34375 -5.0625 1.453125 -5.28125 C 1.671875 -5.6875 2.09375 -5.9375 2.578125 -5.9375 C 3.3125 -5.9375 3.875 -5.40625 3.875 -4.6875 C 3.875 -4.15625 3.5625 -3.6875 2.984375 -3.359375 L 2.140625 -2.859375 C 0.78125 -2.078125 0.390625 -1.453125 0.3125 -0.015625 L 4.65625 -0.015625 Z M 4.65625 -0.796875 "/>
</g>
<g id="glyph-0-1">
<path d="M 4.375 -6.515625 L 1.015625 -6.515625 L 0.53125 -2.96875 L 1.265625 -2.96875 C 1.640625 -3.421875 1.953125 -3.578125 2.46875 -3.578125 C 3.34375 -3.578125 3.890625 -2.984375 3.890625 -2.015625 C 3.890625 -1.078125 3.34375 -0.5 2.46875 -0.5 C 1.75 -0.5 1.328125 -0.859375 1.125 -1.59375 L 0.328125 -1.59375 C 0.4375 -1.0625 0.53125 -0.8125 0.71875 -0.5625 C 1.078125 -0.078125 1.75 0.21875 2.484375 0.21875 C 3.796875 0.21875 4.71875 -0.75 4.71875 -2.125 C 4.71875 -3.40625 3.859375 -4.296875 2.609375 -4.296875 C 2.15625 -4.296875 1.78125 -4.171875 1.40625 -3.890625 L 1.65625 -5.71875 L 4.375 -5.71875 Z M 4.375 -6.515625 "/>
</g>
<g id="glyph-0-2">
<path d="M 2.53125 -6.640625 C 1.921875 -6.640625 1.375 -6.359375 1.03125 -5.921875 C 0.609375 -5.328125 0.390625 -4.453125 0.390625 -3.21875 C 0.390625 -0.96875 1.125 0.21875 2.53125 0.21875 C 3.90625 0.21875 4.65625 -0.96875 4.65625 -3.15625 C 4.65625 -4.453125 4.453125 -5.3125 4.03125 -5.921875 C 3.6875 -6.375 3.140625 -6.640625 2.53125 -6.640625 Z M 2.53125 -5.921875 C 3.40625 -5.921875 3.828125 -5.03125 3.828125 -3.234375 C 3.828125 -1.34375 3.40625 -0.453125 2.515625 -0.453125 C 1.65625 -0.453125 1.21875 -1.375 1.21875 -3.203125 C 1.21875 -5.03125 1.65625 -5.921875 2.53125 -5.921875 Z M 2.53125 -5.921875 "/>
</g>
<g id="glyph-0-3">
<path d="M 2.03125 -3.0625 L 2.46875 -3.0625 C 3.359375 -3.0625 3.828125 -2.640625 3.828125 -1.84375 C 3.828125 -1.015625 3.3125 -0.5 2.484375 -0.5 C 1.59375 -0.5 1.15625 -0.953125 1.109375 -1.921875 L 0.296875 -1.921875 C 0.328125 -1.390625 0.421875 -1.046875 0.578125 -0.75 C 0.921875 -0.109375 1.546875 0.21875 2.4375 0.21875 C 3.78125 0.21875 4.65625 -0.59375 4.65625 -1.859375 C 4.65625 -2.703125 4.328125 -3.15625 3.546875 -3.4375 C 4.15625 -3.6875 4.453125 -4.140625 4.453125 -4.8125 C 4.453125 -5.953125 3.71875 -6.640625 2.46875 -6.640625 C 1.15625 -6.640625 0.453125 -5.90625 0.4375 -4.5 L 1.234375 -4.5 C 1.25 -4.90625 1.28125 -5.140625 1.390625 -5.34375 C 1.578125 -5.71875 1.96875 -5.9375 2.484375 -5.9375 C 3.203125 -5.9375 3.625 -5.5 3.625 -4.78125 C 3.625 -4.3125 3.46875 -4.03125 3.109375 -3.875 C 2.890625 -3.78125 2.59375 -3.75 2.03125 -3.734375 Z M 2.03125 -3.0625 "/>
</g>
<g id="glyph-0-4">
<path d="M 3 -1.609375 L 3 0 L 3.8125 0 L 3.8125 -1.609375 L 4.78125 -1.609375 L 4.78125 -2.328125 L 3.8125 -2.328125 L 3.8125 -6.640625 L 3.21875 -6.640625 L 0.25 -2.46875 L 0.25 -1.609375 Z M 3 -2.328125 L 0.96875 -2.328125 L 3 -5.265625 Z M 3 -2.328125 "/>
</g>
<g id="glyph-0-5">
<path d="M 2.375 -4.734375 L 2.375 0 L 3.1875 0 L 3.1875 -6.640625 L 2.65625 -6.640625 C 2.375 -5.625 2.1875 -5.484375 0.9375 -5.3125 L 0.9375 -4.734375 Z M 2.375 -4.734375 "/>
</g>
<g id="glyph-0-6">
<path d="M 4.578125 -4.921875 C 4.421875 -6 3.71875 -6.640625 2.734375 -6.640625 C 2.015625 -6.640625 1.375 -6.296875 0.984375 -5.703125 C 0.5625 -5.046875 0.390625 -4.234375 0.390625 -3.03125 C 0.390625 -1.90625 0.546875 -1.203125 0.953125 -0.609375 C 1.296875 -0.078125 1.859375 0.21875 2.578125 0.21875 C 3.828125 0.21875 4.71875 -0.71875 4.71875 -2.015625 C 4.71875 -3.234375 3.890625 -4.09375 2.71875 -4.09375 C 2.078125 -4.09375 1.578125 -3.859375 1.21875 -3.375 C 1.234375 -5.015625 1.75 -5.921875 2.671875 -5.921875 C 3.25 -5.921875 3.640625 -5.5625 3.765625 -4.921875 Z M 2.625 -3.375 C 3.40625 -3.375 3.890625 -2.828125 3.890625 -1.953125 C 3.890625 -1.109375 3.328125 -0.5 2.59375 -0.5 C 1.84375 -0.5 1.265625 -1.140625 1.265625 -1.984375 C 1.265625 -2.8125 1.8125 -3.375 2.625 -3.375 Z M 2.625 -3.375 "/>
</g>
<g id="glyph-0-7">
<path d="M 4.78125 -6.515625 L 0.421875 -6.515625 L 0.421875 -5.71875 L 3.9375 -5.71875 C 2.390625 -3.5 1.75 -2.140625 1.265625 0 L 2.125 0 C 2.484375 -2.078125 3.3125 -3.875 4.78125 -5.828125 Z M 4.78125 -6.515625 "/>
</g>
<g id="glyph-1-0">
<path d="M 5.125 -2.359375 L 5.921875 0 L 7.046875 0 L 4.28125 -7.875 L 2.984375 -7.875 L 0.1875 0 L 1.25 0 L 2.078125 -2.359375 Z M 4.84375 -3.203125 L 2.328125 -3.203125 L 3.625 -6.796875 Z M 4.84375 -3.203125 "/>
</g>
<g id="glyph-1-1">
<path d="M 3.078125 0 L 5.25 -5.65625 L 4.234375 -5.65625 L 2.640625 -1.0625 L 1.125 -5.65625 L 0.109375 -5.65625 L 2.09375 0 Z M 3.078125 0 "/>
</g>
<g id="glyph-1-2">
<path d="M 5.53125 -2.53125 C 5.53125 -3.390625 5.46875 -3.90625 5.3125 -4.328125 C 4.9375 -5.265625 4.078125 -5.8125 3.015625 -5.8125 C 1.453125 -5.8125 0.4375 -4.625 0.4375 -2.75 C 0.4375 -0.890625 1.40625 0.25 3 0.25 C 4.296875 0.25 5.1875 -0.484375 5.421875 -1.71875 L 4.515625 -1.71875 C 4.265625 -0.96875 3.75 -0.578125 3.03125 -0.578125 C 2.46875 -0.578125 1.96875 -0.84375 1.671875 -1.3125 C 1.453125 -1.640625 1.375 -1.96875 1.375 -2.53125 Z M 1.390625 -3.265625 C 1.46875 -4.3125 2.109375 -4.984375 3.015625 -4.984375 C 3.9375 -4.984375 4.5625 -4.28125 4.5625 -3.265625 Z M 1.390625 -3.265625 "/>
</g>
<g id="glyph-1-3">
<path d="M 0.75 -5.65625 L 0.75 0 L 1.65625 0 L 1.65625 -2.9375 C 1.65625 -4.296875 2.21875 -4.90625 3.46875 -4.875 L 3.46875 -5.78125 C 3.3125 -5.8125 3.234375 -5.8125 3.125 -5.8125 C 2.53125 -5.8125 2.09375 -5.46875 1.578125 -4.625 L 1.578125 -5.65625 Z M 0.75 -5.65625 "/>
</g>
<g id="glyph-1-4">
<path d="M 5.78125 -0.53125 C 5.671875 -0.5 5.640625 -0.5 5.578125 -0.5 C 5.265625 -0.5 5.09375 -0.671875 5.09375 -0.953125 L 5.09375 -4.28125 C 5.09375 -5.28125 4.359375 -5.8125 2.96875 -5.8125 C 2.140625 -5.8125 1.484375 -5.578125 1.09375 -5.15625 C 0.828125 -4.875 0.71875 -4.546875 0.703125 -3.984375 L 1.609375 -3.984375 C 1.6875 -4.671875 2.09375 -4.984375 2.9375 -4.984375 C 3.75 -4.984375 4.203125 -4.6875 4.203125 -4.140625 L 4.203125 -3.90625 C 4.1875 -3.515625 4 -3.375 3.265625 -3.28125 C 1.984375 -3.125 1.796875 -3.078125 1.453125 -2.9375 C 0.78125 -2.65625 0.453125 -2.15625 0.453125 -1.421875 C 0.453125 -0.40625 1.171875 0.25 2.3125 0.25 C 3.015625 0.25 3.59375 0 4.234375 -0.578125 C 4.296875 0 4.578125 0.25 5.15625 0.25 C 5.359375 0.25 5.46875 0.234375 5.78125 0.15625 Z M 4.203125 -1.78125 C 4.203125 -1.484375 4.109375 -1.296875 3.84375 -1.046875 C 3.484375 -0.71875 3.03125 -0.546875 2.5 -0.546875 C 1.796875 -0.546875 1.390625 -0.875 1.390625 -1.453125 C 1.390625 -2.046875 1.78125 -2.34375 2.75 -2.484375 C 3.71875 -2.609375 3.890625 -2.65625 4.203125 -2.796875 Z M 4.203125 -1.78125 "/>
</g>
<g id="glyph-1-5">
<path d="M 4.359375 -5.65625 L 4.359375 -4.84375 C 3.90625 -5.515625 3.40625 -5.8125 2.703125 -5.8125 C 1.328125 -5.8125 0.375 -4.546875 0.375 -2.734375 C 0.375 -1.78125 0.609375 -1.09375 1.09375 -0.515625 C 1.515625 -0.015625 2.046875 0.25 2.640625 0.25 C 3.3125 0.25 3.796875 -0.046875 4.28125 -0.765625 L 4.28125 -0.46875 C 4.28125 1.03125 3.859375 1.59375 2.734375 1.59375 C 1.96875 1.59375 1.5625 1.296875 1.484375 0.640625 L 0.5625 0.640625 C 0.640625 1.6875 1.484375 2.359375 2.703125 2.359375 C 3.546875 2.359375 4.234375 2.078125 4.59375 1.625 C 5.03125 1.09375 5.1875 0.40625 5.1875 -0.921875 L 5.1875 -5.65625 Z M 2.78125 -4.984375 C 3.734375 -4.984375 4.28125 -4.1875 4.28125 -2.75 C 4.28125 -1.375 3.71875 -0.578125 2.78125 -0.578125 C 1.859375 -0.578125 1.3125 -1.390625 1.3125 -2.78125 C 1.3125 -4.171875 1.859375 -4.984375 2.78125 -4.984375 Z M 2.78125 -4.984375 "/>
</g>
<g id="glyph-1-6">
</g>
<g id="glyph-1-7">
<path d="M 5.34375 -7.875 L 4.453125 -7.875 L 4.453125 -4.9375 C 4.078125 -5.515625 3.46875 -5.8125 2.703125 -5.8125 C 1.234375 -5.8125 0.28125 -4.640625 0.28125 -2.84375 C 0.28125 -0.921875 1.203125 0.25 2.75 0.25 C 3.515625 0.25 4.0625 -0.046875 4.546875 -0.75 L 4.546875 0 L 5.34375 0 Z M 2.859375 -4.984375 C 3.828125 -4.984375 4.453125 -4.125 4.453125 -2.765625 C 4.453125 -1.453125 3.828125 -0.59375 2.875 -0.59375 C 1.875 -0.59375 1.21875 -1.46875 1.21875 -2.78125 C 1.21875 -4.109375 1.875 -4.984375 2.859375 -4.984375 Z M 2.859375 -4.984375 "/>
</g>
<g id="glyph-1-8">
<path d="M 5.203125 0 L 5.203125 -5.65625 L 4.3125 -5.65625 L 4.3125 -2.453125 C 4.3125 -1.296875 3.703125 -0.546875 2.765625 -0.546875 C 2.046875 -0.546875 1.59375 -0.96875 1.59375 -1.65625 L 1.59375 -5.65625 L 0.703125 -5.65625 L 0.703125 -1.296875 C 0.703125 -0.359375 1.40625 0.25 2.5 0.25 C 3.34375 0.25 3.859375 -0.046875 4.390625 -0.78125 L 4.390625 0 Z M 5.203125 0 "/>
</g>
<g id="glyph-1-9">
<path d="M 1.640625 -7.875 L 0.734375 -7.875 L 0.734375 0 L 1.640625 0 Z M 1.640625 -7.875 "/>
</g>
<g id="glyph-1-10">
<path d="M 2.75 -5.65625 L 1.8125 -5.65625 L 1.8125 -7.21875 L 0.921875 -7.21875 L 0.921875 -5.65625 L 0.15625 -5.65625 L 0.15625 -4.921875 L 0.921875 -4.921875 L 0.921875 -0.640625 C 0.921875 -0.0625 1.3125 0.25 2.015625 0.25 C 2.25 0.25 2.4375 0.234375 2.75 0.171875 L 2.75 -0.578125 C 2.609375 -0.546875 2.5 -0.546875 2.3125 -0.546875 C 1.921875 -0.546875 1.8125 -0.640625 1.8125 -1.046875 L 1.8125 -4.921875 L 2.75 -4.921875 Z M 2.75 -5.65625 "/>
</g>
<g id="glyph-1-11">
<path d="M 0.578125 -7.875 L 0.578125 0 L 1.390625 0 L 1.390625 -0.71875 C 1.828125 -0.0625 2.390625 0.25 3.1875 0.25 C 4.671875 0.25 5.640625 -0.96875 5.640625 -2.84375 C 5.640625 -4.6875 4.734375 -5.8125 3.234375 -5.8125 C 2.453125 -5.8125 1.90625 -5.53125 1.484375 -4.890625 L 1.484375 -7.875 Z M 3.0625 -4.984375 C 4.0625 -4.984375 4.703125 -4.109375 4.703125 -2.75 C 4.703125 -1.46875 4.03125 -0.59375 3.0625 -0.59375 C 2.09375 -0.59375 1.484375 -1.453125 1.484375 -2.78125 C 1.484375 -4.109375 2.09375 -4.984375 3.0625 -4.984375 Z M 3.0625 -4.984375 "/>
</g>
<g id="glyph-1-12">
<path d="M 1.625 -5.65625 L 0.71875 -5.65625 L 0.71875 0 L 1.625 0 Z M 1.625 -7.875 L 0.71875 -7.875 L 0.71875 -6.734375 L 1.625 -6.734375 Z M 1.625 -7.875 "/>
</g>
<g id="glyph-1-13">
<path d="M 2.9375 -5.8125 C 1.34375 -5.8125 0.390625 -4.6875 0.390625 -2.78125 C 0.390625 -0.875 1.34375 0.25 2.953125 0.25 C 4.546875 0.25 5.5 -0.890625 5.5 -2.75 C 5.5 -4.703125 4.578125 -5.8125 2.9375 -5.8125 Z M 2.953125 -4.984375 C 3.96875 -4.984375 4.5625 -4.15625 4.5625 -2.75 C 4.5625 -1.421875 3.9375 -0.578125 2.953125 -0.578125 C 1.9375 -0.578125 1.328125 -1.421875 1.328125 -2.78125 C 1.328125 -4.15625 1.9375 -4.984375 2.953125 -4.984375 Z M 2.953125 -4.984375 "/>
</g>
<g id="glyph-1-14">
<path d="M 0.75 -5.65625 L 0.75 0 L 1.65625 0 L 1.65625 -3.546875 C 1.65625 -4.375 2.25 -5.03125 2.984375 -5.03125 C 3.65625 -5.03125 4.03125 -4.625 4.03125 -3.890625 L 4.03125 0 L 4.9375 0 L 4.9375 -3.546875 C 4.9375 -4.375 5.53125 -5.03125 6.265625 -5.03125 C 6.9375 -5.03125 7.3125 -4.609375 7.3125 -3.890625 L 7.3125 0 L 8.234375 0 L 8.234375 -4.25 C 8.234375 -5.265625 7.640625 -5.8125 6.59375 -5.8125 C 5.828125 -5.8125 5.375 -5.59375 4.84375 -4.953125 C 4.515625 -5.5625 4.0625 -5.8125 3.328125 -5.8125 C 2.5625 -5.8125 2.0625 -5.53125 1.59375 -4.859375 L 1.59375 -5.65625 Z M 0.75 -5.65625 "/>
</g>
<g id="glyph-1-15">
<path d="M 4.734375 -4.078125 C 4.71875 -5.1875 3.984375 -5.8125 2.671875 -5.8125 C 1.359375 -5.8125 0.5 -5.140625 0.5 -4.09375 C 0.5 -3.203125 0.953125 -2.78125 2.296875 -2.46875 L 3.140625 -2.25 C 3.765625 -2.109375 4.015625 -1.875 4.015625 -1.484375 C 4.015625 -0.9375 3.484375 -0.578125 2.703125 -0.578125 C 2.21875 -0.578125 1.796875 -0.71875 1.578125 -0.953125 C 1.4375 -1.125 1.375 -1.28125 1.3125 -1.6875 L 0.359375 -1.6875 C 0.40625 -0.375 1.140625 0.25 2.625 0.25 C 4.046875 0.25 4.953125 -0.453125 4.953125 -1.546875 C 4.953125 -2.390625 4.484375 -2.84375 3.359375 -3.125 L 2.5 -3.328125 C 1.765625 -3.5 1.453125 -3.734375 1.453125 -4.140625 C 1.453125 -4.671875 1.90625 -4.984375 2.640625 -4.984375 C 3.375 -4.984375 3.75 -4.671875 3.78125 -4.078125 Z M 4.734375 -4.078125 "/>
</g>
<g id="glyph-1-16">
<path d="M 2.546875 -7.875 C 1.46875 -6.453125 0.78125 -4.484375 0.78125 -2.796875 C 0.78125 -1.09375 1.46875 0.875 2.546875 2.28125 L 3.140625 2.28125 C 2.1875 0.75 1.65625 -1.0625 1.65625 -2.796875 C 1.65625 -4.515625 2.1875 -6.34375 3.140625 -7.875 Z M 2.546875 -7.875 "/>
</g>
<g id="glyph-1-17">
<path d="M 2.796875 -5.5625 L 2.796875 0 L 3.75 0 L 3.75 -7.8125 L 3.125 -7.8125 C 2.78125 -6.609375 2.5625 -6.453125 1.09375 -6.25 L 1.09375 -5.5625 Z M 2.796875 -5.5625 "/>
</g>
<g id="glyph-1-18">
<path d="M 2.96875 -7.8125 C 2.25 -7.8125 1.609375 -7.484375 1.203125 -6.953125 C 0.71875 -6.265625 0.46875 -5.21875 0.46875 -3.78125 C 0.46875 -1.140625 1.328125 0.25 2.96875 0.25 C 4.59375 0.25 5.46875 -1.140625 5.46875 -3.71875 C 5.46875 -5.21875 5.234375 -6.234375 4.734375 -6.953125 C 4.328125 -7.5 3.6875 -7.8125 2.96875 -7.8125 Z M 2.96875 -6.96875 C 4 -6.96875 4.5 -5.921875 4.5 -3.796875 C 4.5 -1.578125 4 -0.546875 2.953125 -0.546875 C 1.9375 -0.546875 1.4375 -1.625 1.4375 -3.765625 C 1.4375 -5.921875 1.9375 -6.96875 2.96875 -6.96875 Z M 2.96875 -6.96875 "/>
</g>
<g id="glyph-1-19">
<path d="M 1 2.28125 C 2.078125 0.875 2.765625 -1.09375 2.765625 -2.78125 C 2.765625 -4.484375 2.078125 -6.453125 1 -7.875 L 0.40625 -7.875 C 1.359375 -6.328125 1.890625 -4.515625 1.890625 -2.78125 C 1.890625 -1.0625 1.359375 0.75 0.40625 2.28125 Z M 1 2.28125 "/>
</g>
<g id="glyph-2-0">
<path d="M 1.671875 -2.515625 L 2.03125 -2.515625 C 2.765625 -2.515625 3.140625 -2.171875 3.140625 -1.515625 C 3.140625 -0.828125 2.734375 -0.421875 2.046875 -0.421875 C 1.3125 -0.421875 0.953125 -0.78125 0.90625 -1.59375 L 0.234375 -1.59375 C 0.265625 -1.15625 0.34375 -0.859375 0.46875 -0.625 C 0.75 -0.09375 1.28125 0.171875 2.015625 0.171875 C 3.109375 0.171875 3.828125 -0.484375 3.828125 -1.53125 C 3.828125 -2.21875 3.5625 -2.59375 2.921875 -2.828125 C 3.421875 -3.03125 3.671875 -3.40625 3.671875 -3.96875 C 3.671875 -4.90625 3.0625 -5.46875 2.03125 -5.46875 C 0.953125 -5.46875 0.375 -4.859375 0.359375 -3.703125 L 1.015625 -3.703125 C 1.03125 -4.03125 1.0625 -4.234375 1.140625 -4.390625 C 1.296875 -4.703125 1.625 -4.890625 2.046875 -4.890625 C 2.625 -4.890625 2.984375 -4.53125 2.984375 -3.9375 C 2.984375 -3.546875 2.84375 -3.3125 2.5625 -3.1875 C 2.375 -3.109375 2.125 -3.078125 1.671875 -3.078125 Z M 1.671875 -2.515625 "/>
</g>
<g id="glyph-3-0">
<path d="M 0 0.125 L 0 -7.328125 L -7.875 -4.125 L -7.875 -3.046875 Z M -6.65625 -3.59375 L -0.890625 -5.875 L -0.890625 -1.3125 Z M -6.65625 -3.59375 "/>
</g>
<g id="glyph-3-1">
</g>
<g id="glyph-3-2">
<path d="M -7.875 -6.96875 L -7.875 -6.03125 L -1.4375 -6.03125 L -7.875 -1.90625 L -7.875 -0.828125 L 0 -0.828125 L 0 -1.765625 L -6.375 -1.765625 L 0 -5.84375 L 0 -6.96875 Z M -7.875 -6.96875 "/>
</g>
<g id="glyph-3-3">
<path d="M -7.875 -1.875 L -7.875 -0.859375 L 0 -0.859375 L 0 -5.75 L -0.890625 -5.75 L -0.890625 -1.875 Z M -7.875 -1.875 "/>
</g>
<g id="glyph-4-0">
<path d="M 5.71875 -4.34375 C 5.46875 -5.734375 4.671875 -6.40625 3.296875 -6.40625 C 2.4375 -6.40625 1.765625 -6.140625 1.296875 -5.609375 C 0.71875 -5 0.421875 -4.09375 0.421875 -3.078125 C 0.421875 -2.046875 0.734375 -1.15625 1.328125 -0.53125 C 1.8125 -0.03125 2.4375 0.203125 3.25 0.203125 C 4.796875 0.203125 5.65625 -0.625 5.84375 -2.296875 L 5.015625 -2.296875 C 4.953125 -1.859375 4.859375 -1.578125 4.734375 -1.328125 C 4.46875 -0.796875 3.9375 -0.515625 3.265625 -0.515625 C 2.015625 -0.515625 1.21875 -1.515625 1.21875 -3.078125 C 1.21875 -4.703125 1.96875 -5.6875 3.203125 -5.6875 C 3.703125 -5.6875 4.1875 -5.546875 4.4375 -5.296875 C 4.671875 -5.078125 4.796875 -4.828125 4.90625 -4.34375 Z M 5.71875 -4.34375 "/>
</g>
<g id="glyph-4-1">
<path d="M 1.59375 -2.671875 L 3.5625 -2.671875 C 4.0625 -2.671875 4.453125 -2.8125 4.78125 -3.125 C 5.171875 -3.46875 5.328125 -3.875 5.328125 -4.453125 C 5.328125 -5.640625 4.625 -6.296875 3.390625 -6.296875 L 0.78125 -6.296875 L 0.78125 0 L 1.59375 0 Z M 1.59375 -3.375 L 1.59375 -5.59375 L 3.265625 -5.59375 C 4.03125 -5.59375 4.5 -5.171875 4.5 -4.484375 C 4.5 -3.796875 4.03125 -3.375 3.265625 -3.375 Z M 1.59375 -3.375 "/>
</g>
<g id="glyph-4-2">
<path d="M 4.765625 -6.296875 L 4.765625 -1.875 C 4.765625 -1.03125 4.15625 -0.515625 3.140625 -0.515625 C 2.671875 -0.515625 2.296875 -0.625 2 -0.84375 C 1.6875 -1.078125 1.53125 -1.40625 1.53125 -1.875 L 1.53125 -6.296875 L 0.734375 -6.296875 L 0.734375 -1.875 C 0.734375 -0.59375 1.65625 0.203125 3.140625 0.203125 C 4.625 0.203125 5.578125 -0.609375 5.578125 -1.875 L 5.578125 -6.296875 Z M 4.765625 -6.296875 "/>
</g>
<g id="glyph-4-3">
<path d="M 1.578125 -2.875 L 5.015625 -2.875 L 5.015625 -3.578125 L 1.578125 -3.578125 L 1.578125 -5.59375 L 5.140625 -5.59375 L 5.140625 -6.296875 L 0.78125 -6.296875 L 0.78125 0 L 5.296875 0 L 5.296875 -0.703125 L 1.578125 -0.703125 Z M 1.578125 -2.875 "/>
</g>
<g id="glyph-5-0">
<path d="M 1.5625 -2.640625 L 3.59375 -2.640625 C 4.28125 -2.640625 4.59375 -2.3125 4.59375 -1.546875 L 4.59375 -1 C 4.59375 -0.625 4.65625 -0.25 4.765625 0 L 5.71875 0 L 5.71875 -0.1875 C 5.421875 -0.390625 5.359375 -0.609375 5.34375 -1.4375 C 5.34375 -2.4375 5.171875 -2.75 4.515625 -3.03125 C 5.203125 -3.375 5.484375 -3.796875 5.484375 -4.5 C 5.484375 -5.5625 4.828125 -6.140625 3.609375 -6.140625 L 0.78125 -6.140625 L 0.78125 0 L 1.5625 0 Z M 1.5625 -3.328125 L 1.5625 -5.453125 L 3.46875 -5.453125 C 3.90625 -5.453125 4.15625 -5.375 4.34375 -5.21875 C 4.5625 -5.03125 4.671875 -4.765625 4.671875 -4.390625 C 4.671875 -3.65625 4.296875 -3.328125 3.46875 -3.328125 Z M 1.5625 -3.328125 "/>
</g>
<g id="glyph-5-1">
<path d="M 4.328125 -1.96875 C 4.328125 -2.640625 4.265625 -3.046875 4.140625 -3.375 C 3.859375 -4.09375 3.1875 -4.546875 2.359375 -4.546875 C 1.125 -4.546875 0.34375 -3.609375 0.34375 -2.140625 C 0.34375 -0.6875 1.09375 0.1875 2.34375 0.1875 C 3.359375 0.1875 4.046875 -0.375 4.234375 -1.34375 L 3.515625 -1.34375 C 3.328125 -0.765625 2.9375 -0.453125 2.359375 -0.453125 C 1.921875 -0.453125 1.546875 -0.65625 1.3125 -1.03125 C 1.140625 -1.28125 1.078125 -1.53125 1.0625 -1.96875 Z M 1.09375 -2.546875 C 1.140625 -3.359375 1.640625 -3.890625 2.34375 -3.890625 C 3.0625 -3.890625 3.5625 -3.328125 3.5625 -2.546875 Z M 1.09375 -2.546875 "/>
</g>
<g id="glyph-5-2">
<path d="M 3.40625 -4.40625 L 3.40625 -3.765625 C 3.046875 -4.296875 2.65625 -4.546875 2.109375 -4.546875 C 1.03125 -4.546875 0.296875 -3.546875 0.296875 -2.125 C 0.296875 -1.390625 0.46875 -0.84375 0.84375 -0.40625 C 1.171875 -0.015625 1.59375 0.1875 2.0625 0.1875 C 2.578125 0.1875 2.96875 -0.046875 3.328125 -0.59375 L 3.328125 -0.375 C 3.328125 0.8125 3 1.25 2.125 1.25 C 1.53125 1.25 1.21875 1.015625 1.15625 0.5 L 0.4375 0.5 C 0.5 1.328125 1.15625 1.84375 2.109375 1.84375 C 2.765625 1.84375 3.296875 1.625 3.59375 1.265625 C 3.921875 0.859375 4.046875 0.3125 4.046875 -0.71875 L 4.046875 -4.40625 Z M 2.171875 -3.890625 C 2.90625 -3.890625 3.328125 -3.265625 3.328125 -2.140625 C 3.328125 -1.078125 2.90625 -0.453125 2.171875 -0.453125 C 1.453125 -0.453125 1.03125 -1.09375 1.03125 -2.171875 C 1.03125 -3.25 1.453125 -3.890625 2.171875 -3.890625 Z M 2.171875 -3.890625 "/>
</g>
<g id="glyph-5-3">
<path d="M 1.265625 -4.40625 L 0.5625 -4.40625 L 0.5625 0 L 1.265625 0 Z M 1.265625 -6.140625 L 0.5625 -6.140625 L 0.5625 -5.25 L 1.265625 -5.25 Z M 1.265625 -6.140625 "/>
</g>
<g id="glyph-5-4">
<path d="M 2.296875 -4.546875 C 1.046875 -4.546875 0.296875 -3.65625 0.296875 -2.171875 C 0.296875 -0.6875 1.046875 0.1875 2.296875 0.1875 C 3.546875 0.1875 4.296875 -0.6875 4.296875 -2.140625 C 4.296875 -3.671875 3.578125 -4.546875 2.296875 -4.546875 Z M 2.296875 -3.890625 C 3.09375 -3.890625 3.5625 -3.25 3.5625 -2.140625 C 3.5625 -1.109375 3.078125 -0.453125 2.296875 -0.453125 C 1.515625 -0.453125 1.03125 -1.109375 1.03125 -2.171875 C 1.03125 -3.25 1.515625 -3.890625 2.296875 -3.890625 Z M 2.296875 -3.890625 "/>
</g>
<g id="glyph-5-5">
<path d="M 0.59375 -4.40625 L 0.59375 0 L 1.296875 0 L 1.296875 -2.4375 C 1.296875 -3.328125 1.765625 -3.921875 2.5 -3.921875 C 3.046875 -3.921875 3.40625 -3.59375 3.40625 -3.0625 L 3.40625 0 L 4.09375 0 L 4.09375 -3.328125 C 4.09375 -4.0625 3.546875 -4.546875 2.703125 -4.546875 C 2.046875 -4.546875 1.625 -4.28125 1.234375 -3.671875 L 1.234375 -4.40625 Z M 0.59375 -4.40625 "/>
</g>
<g id="glyph-5-6">
</g>
<g id="glyph-5-7">
<path d="M 2.1875 -4.34375 L 2.1875 0 L 2.921875 0 L 2.921875 -6.09375 L 2.4375 -6.09375 C 2.171875 -5.15625 2 -5.03125 0.859375 -4.875 L 0.859375 -4.34375 Z M 2.1875 -4.34375 "/>
</g>
<g id="glyph-5-8">
<path d="M 4.265625 -0.734375 L 1.125 -0.734375 C 1.203125 -1.234375 1.46875 -1.5625 2.203125 -2 L 3.046875 -2.46875 C 3.875 -2.9375 4.296875 -3.5625 4.296875 -4.3125 C 4.296875 -4.8125 4.09375 -5.28125 3.75 -5.625 C 3.390625 -5.9375 2.953125 -6.09375 2.390625 -6.09375 C 1.640625 -6.09375 1.0625 -5.8125 0.734375 -5.296875 C 0.53125 -4.984375 0.4375 -4.59375 0.421875 -3.984375 L 1.15625 -3.984375 C 1.1875 -4.390625 1.234375 -4.640625 1.34375 -4.84375 C 1.53125 -5.21875 1.921875 -5.4375 2.359375 -5.4375 C 3.046875 -5.4375 3.546875 -4.953125 3.546875 -4.296875 C 3.546875 -3.8125 3.265625 -3.390625 2.734375 -3.078125 L 1.96875 -2.625 C 0.71875 -1.90625 0.359375 -1.34375 0.28125 -0.015625 L 4.265625 -0.015625 Z M 4.265625 -0.734375 "/>
</g>
</g>
<clipPath id="clip-0">
<path clip-rule="nonzero" d="M 69.984375 207 L 507.632812 207 L 507.632812 208.15625 L 69.984375 208.15625 Z M 69.984375 207 "/>
</clipPath>
<clipPath id="clip-1">
<path clip-rule="nonzero" d="M 69.984375 181 L 507.632812 181 L 507.632812 183 L 69.984375 183 Z M 69.984375 181 "/>
</clipPath>
<clipPath id="clip-2">
<path clip-rule="nonzero" d="M 69.984375 155 L 507.632812 155 L 507.632812 156 L 69.984375 156 Z M 69.984375 155 "/>
</clipPath>
<clipPath id="clip-3">
<path clip-rule="nonzero" d="M 69.984375 129 L 507.632812 129 L 507.632812 130 L 69.984375 130 Z M 69.984375 129 "/>
</clipPath>
<clipPath id="clip-4">
<path clip-rule="nonzero" d="M 69.984375 103 L 507.632812 103 L 507.632812 104 L 69.984375 104 Z M 69.984375 103 "/>
</clipPath>
<clipPath id="clip-5">
<path clip-rule="nonzero" d="M 69.984375 76 L 507.632812 76 L 507.632812 78 L 69.984375 78 Z M 69.984375 76 "/>
</clipPath>
<clipPath id="clip-6">
<path clip-rule="nonzero" d="M 69.984375 50 L 507.632812 50 L 507.632812 51 L 69.984375 51 Z M 69.984375 50 "/>
</clipPath>
<clipPath id="clip-7">
<path clip-rule="nonzero" d="M 69.984375 24 L 507.632812 24 L 507.632812 25 L 69.984375 25 Z M 69.984375 24 "/>
</clipPath>
<clipPath id="clip-8">
<path clip-rule="nonzero" d="M 123 18.144531 L 124 18.144531 L 124 208.15625 L 123 208.15625 Z M 123 18.144531 "/>
</clipPath>
<clipPath id="clip-9">
<path clip-rule="nonzero" d="M 191 18.144531 L 193 18.144531 L 193 208.15625 L 191 208.15625 Z M 191 18.144531 "/>
</clipPath>
<clipPath id="clip-10">
<path clip-rule="nonzero" d="M 260 18.144531 L 261 18.144531 L 261 208.15625 L 260 208.15625 Z M 260 18.144531 "/>
</clipPath>
<clipPath id="clip-11">
<path clip-rule="nonzero" d="M 328 18.144531 L 329 18.144531 L 329 208.15625 L 328 208.15625 Z M 328 18.144531 "/>
</clipPath>
<clipPath id="clip-12">
<path clip-rule="nonzero" d="M 396 18.144531 L 398 18.144531 L 398 208.15625 L 396 208.15625 Z M 396 18.144531 "/>
</clipPath>
<clipPath id="clip-13">
<path clip-rule="nonzero" d="M 464 18.144531 L 466 18.144531 L 466 208.15625 L 464 208.15625 Z M 464 18.144531 "/>
</clipPath>
<clipPath id="clip-14">
<path clip-rule="nonzero" d="M 85 28 L 492 28 L 492 208.15625 L 85 208.15625 Z M 85 28 "/>
</clipPath>
<clipPath id="clip-15">
<path clip-rule="nonzero" d="M 427 206 L 430 206 L 430 208.15625 L 427 208.15625 Z M 427 206 "/>
</clipPath>
<clipPath id="clip-16">
<path clip-rule="nonzero" d="M 439 206 L 442 206 L 442 208.15625 L 439 208.15625 Z M 439 206 "/>
</clipPath>
<clipPath id="clip-17">
<path clip-rule="nonzero" d="M 452 207 L 455 207 L 455 208.15625 L 452 208.15625 Z M 452 207 "/>
</clipPath>
<clipPath id="clip-18">
<path clip-rule="nonzero" d="M 465 207 L 468 207 L 468 208.15625 L 465 208.15625 Z M 465 207 "/>
</clipPath>
<clipPath id="clip-19">
<path clip-rule="nonzero" d="M 477 206 L 480 206 L 480 208.15625 L 477 208.15625 Z M 477 206 "/>
</clipPath>
<clipPath id="clip-20">
<path clip-rule="nonzero" d="M 490 206 L 493 206 L 493 208.15625 L 490 208.15625 Z M 490 206 "/>
</clipPath>
<clipPath id="clip-21">
<path clip-rule="nonzero" d="M 85 103 L 492 103 L 492 208.15625 L 85 208.15625 Z M 85 103 "/>
</clipPath>
<clipPath id="clip-22">
<path clip-rule="nonzero" d="M 186 206 L 189 206 L 189 208.15625 L 186 208.15625 Z M 186 206 "/>
</clipPath>
<clipPath id="clip-23">
<path clip-rule="nonzero" d="M 199 207 L 202 207 L 202 208.15625 L 199 208.15625 Z M 199 207 "/>
</clipPath>
<clipPath id="clip-24">
<path clip-rule="nonzero" d="M 211 206 L 214 206 L 214 208.15625 L 211 208.15625 Z M 211 206 "/>
</clipPath>
</defs>
<rect x="-51.8" y="-32.4" width="621.6" height="388.8" fill="rgb(100%, 100%, 100%)" fill-opacity="1"/>
<path fill="none" stroke-width="0.75" stroke-linecap="round" stroke-linejoin="round" stroke="rgb(0%, 0%, 0%)" stroke-opacity="1" stroke-miterlimit="10" d="M 69.984375 18.144531 L 69.984375 208.15625 L 507.632812 208.15625 "/>
<g clip-path="url(#clip-0)">
<path fill="none" stroke-width="0.3375" stroke-linecap="round" stroke-linejoin="round" stroke="rgb(90.980392%, 92.941176%, 93.72549%)" stroke-opacity="1" stroke-miterlimit="10" d="M 69.984375 208.15625 L 507.632812 208.15625 "/>
</g>
<g clip-path="url(#clip-1)">
<path fill="none" stroke-width="0.3375" stroke-linecap="round" stroke-linejoin="round" stroke="rgb(90.980392%, 92.941176%, 93.72549%)" stroke-opacity="1" stroke-miterlimit="10" d="M 69.984375 181.933594 L 507.632812 181.933594 "/>
</g>
<g clip-path="url(#clip-2)">
<path fill="none" stroke-width="0.3375" stroke-linecap="round" stroke-linejoin="round" stroke="rgb(90.980392%, 92.941176%, 93.72549%)" stroke-opacity="1" stroke-miterlimit="10" d="M 69.984375 155.710938 L 507.632812 155.710938 "/>
</g>
<g clip-path="url(#clip-3)">
<path fill="none" stroke-width="0.3375" stroke-linecap="round" stroke-linejoin="round" stroke="rgb(90.980392%, 92.941176%, 93.72549%)" stroke-opacity="1" stroke-miterlimit="10" d="M 69.984375 129.492188 L 507.632812 129.492188 "/>
</g>
<g clip-path="url(#clip-4)">
<path fill="none" stroke-width="0.3375" stroke-linecap="round" stroke-linejoin="round" stroke="rgb(90.980392%, 92.941176%, 93.72549%)" stroke-opacity="1" stroke-miterlimit="10" d="M 69.984375 103.269531 L 507.632812 103.269531 "/>
</g>
<g clip-path="url(#clip-5)">
<path fill="none" stroke-width="0.3375" stroke-linecap="round" stroke-linejoin="round" stroke="rgb(90.980392%, 92.941176%, 93.72549%)" stroke-opacity="1" stroke-miterlimit="10" d="M 69.984375 77.050781 L 507.632812 77.050781 "/>
</g>
<g clip-path="url(#clip-6)">
<path fill="none" stroke-width="0.3375" stroke-linecap="round" stroke-linejoin="round" stroke="rgb(90.980392%, 92.941176%, 93.72549%)" stroke-opacity="1" stroke-miterlimit="10" d="M 69.984375 50.828125 L 507.632812 50.828125 "/>
</g>
<g clip-path="url(#clip-7)">
<path fill="none" stroke-width="0.3375" stroke-linecap="round" stroke-linejoin="round" stroke="rgb(90.980392%, 92.941176%, 93.72549%)" stroke-opacity="1" stroke-miterlimit="10" d="M 69.984375 24.605469 L 507.632812 24.605469 "/>
</g>
<g clip-path="url(#clip-8)">
<path fill="none" stroke-width="0.3375" stroke-linecap="round" stroke-linejoin="round" stroke="rgb(90.980392%, 92.941176%, 93.72549%)" stroke-opacity="1" stroke-miterlimit="10" d="M 123.699219 208.15625 L 123.699219 18.144531 "/>
</g>
<g clip-path="url(#clip-9)">
<path fill="none" stroke-width="0.3375" stroke-linecap="round" stroke-linejoin="round" stroke="rgb(90.980392%, 92.941176%, 93.72549%)" stroke-opacity="1" stroke-miterlimit="10" d="M 191.984375 208.15625 L 191.984375 18.144531 "/>
</g>
<g clip-path="url(#clip-10)">
<path fill="none" stroke-width="0.3375" stroke-linecap="round" stroke-linejoin="round" stroke="rgb(90.980392%, 92.941176%, 93.72549%)" stroke-opacity="1" stroke-miterlimit="10" d="M 260.273438 208.15625 L 260.273438 18.144531 "/>
</g>
<g clip-path="url(#clip-11)">
<path fill="none" stroke-width="0.3375" stroke-linecap="round" stroke-linejoin="round" stroke="rgb(90.980392%, 92.941176%, 93.72549%)" stroke-opacity="1" stroke-miterlimit="10" d="M 328.558594 208.15625 L 328.558594 18.144531 "/>
</g>
<g clip-path="url(#clip-12)">
<path fill="none" stroke-width="0.3375" stroke-linecap="round" stroke-linejoin="round" stroke="rgb(90.980392%, 92.941176%, 93.72549%)" stroke-opacity="1" stroke-miterlimit="10" d="M 396.84375 208.15625 L 396.84375 18.144531 "/>
</g>
<g clip-path="url(#clip-13)">
<path fill="none" stroke-width="0.3375" stroke-linecap="round" stroke-linejoin="round" stroke="rgb(90.980392%, 92.941176%, 93.72549%)" stroke-opacity="1" stroke-miterlimit="10" d="M 465.128906 208.15625 L 465.128906 18.144531 "/>
</g>
<path fill="none" stroke-width="0.75" stroke-linecap="round" stroke-linejoin="round" stroke="rgb(0%, 0%, 0%)" stroke-opacity="1" stroke-miterlimit="10" d="M 123.699219 208.15625 L 465.128906 208.15625 "/>
<path fill="none" stroke-width="0.75" stroke-linecap="round" stroke-linejoin="round" stroke="rgb(0%, 0%, 0%)" stroke-opacity="1" stroke-miterlimit="10" d="M 123.699219 208.15625 L 123.699219 214.632812 "/>
<path fill="none" stroke-width="0.75" stroke-linecap="round" stroke-linejoin="round" stroke="rgb(0%, 0%, 0%)" stroke-opacity="1" stroke-miterlimit="10" d="M 191.984375 208.15625 L 191.984375 214.632812 "/>
<path fill="none" stroke-width="0.75" stroke-linecap="round" stroke-linejoin="round" stroke="rgb(0%, 0%, 0%)" stroke-opacity="1" stroke-miterlimit="10" d="M 260.273438 208.15625 L 260.273438 214.632812 "/>
<path fill="none" stroke-width="0.75" stroke-linecap="round" stroke-linejoin="round" stroke="rgb(0%, 0%, 0%)" stroke-opacity="1" stroke-miterlimit="10" d="M 328.558594 208.15625 L 328.558594 214.632812 "/>
<path fill="none" stroke-width="0.75" stroke-linecap="round" stroke-linejoin="round" stroke="rgb(0%, 0%, 0%)" stroke-opacity="1" stroke-miterlimit="10" d="M 396.84375 208.15625 L 396.84375 214.632812 "/>
<path fill="none" stroke-width="0.75" stroke-linecap="round" stroke-linejoin="round" stroke="rgb(0%, 0%, 0%)" stroke-opacity="1" stroke-miterlimit="10" d="M 465.128906 208.15625 L 465.128906 214.632812 "/>
<g fill="rgb(32.156863%, 38.039216%, 41.568627%)" fill-opacity="1">
<use xlink:href="#glyph-0-0" x="116.199219" y="227.286133"/>
<use xlink:href="#glyph-0-1" x="121.199219" y="227.286133"/>
<use xlink:href="#glyph-0-2" x="126.199219" y="227.286133"/>
</g>
<g fill="rgb(32.156863%, 38.039216%, 41.568627%)" fill-opacity="1">
<use xlink:href="#glyph-0-3" x="184.484375" y="227.286133"/>
<use xlink:href="#glyph-0-2" x="189.484375" y="227.286133"/>
<use xlink:href="#glyph-0-2" x="194.484375" y="227.286133"/>
</g>
<g fill="rgb(32.156863%, 38.039216%, 41.568627%)" fill-opacity="1">
<use xlink:href="#glyph-0-3" x="252.773438" y="227.286133"/>
<use xlink:href="#glyph-0-1" x="257.773438" y="227.286133"/>
<use xlink:href="#glyph-0-2" x="262.773438" y="227.286133"/>
</g>
<g fill="rgb(32.156863%, 38.039216%, 41.568627%)" fill-opacity="1">
<use xlink:href="#glyph-0-4" x="321.058594" y="227.286133"/>
<use xlink:href="#glyph-0-2" x="326.058594" y="227.286133"/>
<use xlink:href="#glyph-0-2" x="331.058594" y="227.286133"/>
</g>
<g fill="rgb(32.156863%, 38.039216%, 41.568627%)" fill-opacity="1">
<use xlink:href="#glyph-0-4" x="389.34375" y="227.286133"/>
<use xlink:href="#glyph-0-1" x="394.34375" y="227.286133"/>
<use xlink:href="#glyph-0-2" x="399.34375" y="227.286133"/>
</g>
<g fill="rgb(32.156863%, 38.039216%, 41.568627%)" fill-opacity="1">
<use xlink:href="#glyph-0-1" x="457.628906" y="227.286133"/>
<use xlink:href="#glyph-0-2" x="462.628906" y="227.286133"/>
<use xlink:href="#glyph-0-2" x="467.628906" y="227.286133"/>
</g>
<path fill="none" stroke-width="0.75" stroke-linecap="round" stroke-linejoin="round" stroke="rgb(0%, 0%, 0%)" stroke-opacity="1" stroke-miterlimit="10" d="M 69.984375 208.15625 L 69.984375 24.605469 "/>
<path fill="none" stroke-width="0.75" stroke-linecap="round" stroke-linejoin="round" stroke="rgb(0%, 0%, 0%)" stroke-opacity="1" stroke-miterlimit="10" d="M 69.984375 208.15625 L 63.503906 208.15625 "/>
<path fill="none" stroke-width="0.75" stroke-linecap="round" stroke-linejoin="round" stroke="rgb(0%, 0%, 0%)" stroke-opacity="1" stroke-miterlimit="10" d="M 69.984375 181.933594 L 63.503906 181.933594 "/>
<path fill="none" stroke-width="0.75" stroke-linecap="round" stroke-linejoin="round" stroke="rgb(0%, 0%, 0%)" stroke-opacity="1" stroke-miterlimit="10" d="M 69.984375 155.710938 L 63.503906 155.710938 "/>
<path fill="none" stroke-width="0.75" stroke-linecap="round" stroke-linejoin="round" stroke="rgb(0%, 0%, 0%)" stroke-opacity="1" stroke-miterlimit="10" d="M 69.984375 129.492188 L 63.503906 129.492188 "/>
<path fill="none" stroke-width="0.75" stroke-linecap="round" stroke-linejoin="round" stroke="rgb(0%, 0%, 0%)" stroke-opacity="1" stroke-miterlimit="10" d="M 69.984375 103.269531 L 63.503906 103.269531 "/>
<path fill="none" stroke-width="0.75" stroke-linecap="round" stroke-linejoin="round" stroke="rgb(0%, 0%, 0%)" stroke-opacity="1" stroke-miterlimit="10" d="M 69.984375 77.050781 L 63.503906 77.050781 "/>
<path fill="none" stroke-width="0.75" stroke-linecap="round" stroke-linejoin="round" stroke="rgb(0%, 0%, 0%)" stroke-opacity="1" stroke-miterlimit="10" d="M 69.984375 50.828125 L 63.503906 50.828125 "/>
<path fill="none" stroke-width="0.75" stroke-linecap="round" stroke-linejoin="round" stroke="rgb(0%, 0%, 0%)" stroke-opacity="1" stroke-miterlimit="10" d="M 69.984375 24.605469 L 63.503906 24.605469 "/>
<g fill="rgb(32.156863%, 38.039216%, 41.568627%)" fill-opacity="1">
<use xlink:href="#glyph-0-2" x="55.910156" y="211.348633"/>
</g>
<g fill="rgb(32.156863%, 38.039216%, 41.568627%)" fill-opacity="1">
<use xlink:href="#glyph-0-5" x="55.910156" y="185.125977"/>
</g>
<g fill="rgb(32.156863%, 38.039216%, 41.568627%)" fill-opacity="1">
<use xlink:href="#glyph-0-0" x="55.910156" y="158.90332"/>
</g>
<g fill="rgb(32.156863%, 38.039216%, 41.568627%)" fill-opacity="1">
<use xlink:href="#glyph-0-3" x="55.910156" y="132.68457"/>
</g>
<g fill="rgb(32.156863%, 38.039216%, 41.568627%)" fill-opacity="1">
<use xlink:href="#glyph-0-4" x="55.910156" y="106.461914"/>
</g>
<g fill="rgb(32.156863%, 38.039216%, 41.568627%)" fill-opacity="1">
<use xlink:href="#glyph-0-1" x="55.910156" y="80.243164"/>
</g>
<g fill="rgb(32.156863%, 38.039216%, 41.568627%)" fill-opacity="1">
<use xlink:href="#glyph-0-6" x="55.910156" y="54.020508"/>
</g>
<g fill="rgb(32.156863%, 38.039216%, 41.568627%)" fill-opacity="1">
<use xlink:href="#glyph-0-7" x="55.910156" y="27.797852"/>
</g>
<g fill="rgb(14.117647%, 21.176471%, 24.705882%)" fill-opacity="1">
<use xlink:href="#glyph-1-0" x="218.308594" y="247.794922"/>
<use xlink:href="#glyph-1-1" x="225.308594" y="247.794922"/>
<use xlink:href="#glyph-1-2" x="230.308594" y="247.794922"/>
<use xlink:href="#glyph-1-3" x="236.308594" y="247.794922"/>
<use xlink:href="#glyph-1-4" x="240.308594" y="247.794922"/>
<use xlink:href="#glyph-1-5" x="246.308594" y="247.794922"/>
<use xlink:href="#glyph-1-2" x="252.308594" y="247.794922"/>
<use xlink:href="#glyph-1-6" x="258.308594" y="247.794922"/>
<use xlink:href="#glyph-1-4" x="261.308594" y="247.794922"/>
<use xlink:href="#glyph-1-7" x="267.308594" y="247.794922"/>
<use xlink:href="#glyph-1-8" x="273.308594" y="247.794922"/>
<use xlink:href="#glyph-1-9" x="279.308594" y="247.794922"/>
<use xlink:href="#glyph-1-10" x="281.308594" y="247.794922"/>
<use xlink:href="#glyph-1-6" x="284.308594" y="247.794922"/>
<use xlink:href="#glyph-1-11" x="287.308594" y="247.794922"/>
<use xlink:href="#glyph-1-12" x="293.308594" y="247.794922"/>
<use xlink:href="#glyph-1-13" x="295.308594" y="247.794922"/>
<use xlink:href="#glyph-1-14" x="301.308594" y="247.794922"/>
<use xlink:href="#glyph-1-4" x="310.308594" y="247.794922"/>
<use xlink:href="#glyph-1-15" x="316.308594" y="247.794922"/>
<use xlink:href="#glyph-1-15" x="321.308594" y="247.794922"/>
<use xlink:href="#glyph-1-6" x="326.308594" y="247.794922"/>
<use xlink:href="#glyph-1-16" x="329.308594" y="247.794922"/>
</g>
<g fill="rgb(14.117647%, 21.176471%, 24.705882%)" fill-opacity="1">
<use xlink:href="#glyph-1-17" x="333.308594" y="247.794922"/>
<use xlink:href="#glyph-1-18" x="339.308594" y="247.794922"/>
</g>
<g fill="rgb(14.117647%, 21.176471%, 24.705882%)" fill-opacity="1">
<use xlink:href="#glyph-2-0" x="345.308594" y="241.733398"/>
</g>
<g fill="rgb(14.117647%, 21.176471%, 24.705882%)" fill-opacity="1">
<use xlink:href="#glyph-1-6" x="349.308594" y="247.794922"/>
<use xlink:href="#glyph-1-10" x="352.308594" y="247.794922"/>
<use xlink:href="#glyph-1-19" x="355.308594" y="247.794922"/>
</g>
<g fill="rgb(14.117647%, 21.176471%, 24.705882%)" fill-opacity="1">
<use xlink:href="#glyph-3-0" x="18.017578" y="128.148438"/>
</g>
<g fill="rgb(14.117647%, 21.176471%, 24.705882%)" fill-opacity="1">
<use xlink:href="#glyph-3-1" x="18.017578" y="121.148438"/>
</g>
<g fill="rgb(14.117647%, 21.176471%, 24.705882%)" fill-opacity="1">
<use xlink:href="#glyph-3-2" x="18.017578" y="118.148438"/>
</g>
<g fill="rgb(14.117647%, 21.176471%, 24.705882%)" fill-opacity="1">
<use xlink:href="#glyph-3-3" x="18.017578" y="110.148438"/>
</g>
<g fill="rgb(14.117647%, 21.176471%, 24.705882%)" fill-opacity="1">
<use xlink:href="#glyph-3-3" x="18.017578" y="104.148438"/>
</g>
<g clip-path="url(#clip-14)">
<path fill="none" stroke-width="1.125" stroke-linecap="round" stroke-linejoin="round" stroke="rgb(9.019608%, 42.352941%, 50.980392%)" stroke-opacity="1" stroke-miterlimit="10" d="M 86.191406 28.898438 L 98.855469 54.4375 L 111.519531 79.1875 L 124.183594 97.207031 L 136.847656 108.035156 L 149.507812 117.140625 L 162.171875 125.929688 L 174.835938 134.699219 L 187.5 142.855469 L 200.164062 150.355469 L 212.828125 157.175781 L 225.492188 163.371094 L 238.152344 169.824219 L 250.816406 174.929688 L 263.480469 179.738281 L 276.144531 183.871094 L 301.472656 191.242188 L 314.132812 194.066406 L 326.796875 196.355469 L 339.460938 199 L 352.125 201.015625 L 364.789062 202.503906 L 377.453125 204.101562 L 390.113281 205.144531 L 402.777344 206.152344 L 415.441406 206.886719 L 428.105469 207.519531 L 440.769531 207.9375 L 453.433594 208.113281 L 466.09375 208.15625 L 478.761719 207.800781 L 491.421875 207.511719 "/>
</g>
<path fill-rule="nonzero" fill="rgb(9.019608%, 42.352941%, 50.980392%)" fill-opacity="1" d="M 87.285156 28.898438 C 87.285156 30.355469 85.101562 30.355469 85.101562 28.898438 C 85.101562 27.441406 87.285156 27.441406 87.285156 28.898438 "/>
<path fill-rule="nonzero" fill="rgb(9.019608%, 42.352941%, 50.980392%)" fill-opacity="1" d="M 99.949219 54.4375 C 99.949219 55.894531 97.761719 55.894531 97.761719 54.4375 C 97.761719 52.980469 99.949219 52.980469 99.949219 54.4375 "/>
<path fill-rule="nonzero" fill="rgb(9.019608%, 42.352941%, 50.980392%)" fill-opacity="1" d="M 112.613281 79.1875 C 112.613281 80.644531 110.425781 80.644531 110.425781 79.1875 C 110.425781 77.730469 112.613281 77.730469 112.613281 79.1875 "/>
<path fill-rule="nonzero" fill="rgb(9.019608%, 42.352941%, 50.980392%)" fill-opacity="1" d="M 125.277344 97.207031 C 125.277344 98.664062 123.089844 98.664062 123.089844 97.207031 C 123.089844 95.75 125.277344 95.75 125.277344 97.207031 "/>
<path fill-rule="nonzero" fill="rgb(9.019608%, 42.352941%, 50.980392%)" fill-opacity="1" d="M 137.941406 108.035156 C 137.941406 109.492188 135.753906 109.492188 135.753906 108.035156 C 135.753906 106.574219 137.941406 106.574219 137.941406 108.035156 "/>
<path fill-rule="nonzero" fill="rgb(9.019608%, 42.352941%, 50.980392%)" fill-opacity="1" d="M 150.601562 117.140625 C 150.601562 118.597656 148.414062 118.597656 148.414062 117.140625 C 148.414062 115.679688 150.601562 115.679688 150.601562 117.140625 "/>
<path fill-rule="nonzero" fill="rgb(9.019608%, 42.352941%, 50.980392%)" fill-opacity="1" d="M 163.265625 125.929688 C 163.265625 127.390625 161.082031 127.390625 161.082031 125.929688 C 161.082031 124.472656 163.265625 124.472656 163.265625 125.929688 "/>
<path fill-rule="nonzero" fill="rgb(9.019608%, 42.352941%, 50.980392%)" fill-opacity="1" d="M 175.929688 134.699219 C 175.929688 136.15625 173.742188 136.15625 173.742188 134.699219 C 173.742188 133.242188 175.929688 133.242188 175.929688 134.699219 "/>
<path fill-rule="nonzero" fill="rgb(9.019608%, 42.352941%, 50.980392%)" fill-opacity="1" d="M 188.59375 142.855469 C 188.59375 144.3125 186.40625 144.3125 186.40625 142.855469 C 186.40625 141.394531 188.59375 141.394531 188.59375 142.855469 "/>
<path fill-rule="nonzero" fill="rgb(9.019608%, 42.352941%, 50.980392%)" fill-opacity="1" d="M 201.257812 150.355469 C 201.257812 151.816406 199.070312 151.816406 199.070312 150.355469 C 199.070312 148.898438 201.257812 148.898438 201.257812 150.355469 "/>
<path fill-rule="nonzero" fill="rgb(9.019608%, 42.352941%, 50.980392%)" fill-opacity="1" d="M 213.921875 157.175781 C 213.921875 158.632812 211.734375 158.632812 211.734375 157.175781 C 211.734375 155.71875 213.921875 155.71875 213.921875 157.175781 "/>
<path fill-rule="nonzero" fill="rgb(9.019608%, 42.352941%, 50.980392%)" fill-opacity="1" d="M 226.585938 163.371094 C 226.585938 164.828125 224.398438 164.828125 224.398438 163.371094 C 224.398438 161.914062 226.585938 161.914062 226.585938 163.371094 "/>
<path fill-rule="nonzero" fill="rgb(9.019608%, 42.352941%, 50.980392%)" fill-opacity="1" d="M 239.246094 169.824219 C 239.246094 171.285156 237.058594 171.285156 237.058594 169.824219 C 237.058594 168.367188 239.246094 168.367188 239.246094 169.824219 "/>
<path fill-rule="nonzero" fill="rgb(9.019608%, 42.352941%, 50.980392%)" fill-opacity="1" d="M 251.910156 174.929688 C 251.910156 176.390625 249.722656 176.390625 249.722656 174.929688 C 249.722656 173.472656 251.910156 173.472656 251.910156 174.929688 "/>
<path fill-rule="nonzero" fill="rgb(9.019608%, 42.352941%, 50.980392%)" fill-opacity="1" d="M 264.574219 179.738281 C 264.574219 181.195312 262.386719 181.195312 262.386719 179.738281 C 262.386719 178.277344 264.574219 178.277344 264.574219 179.738281 "/>
<path fill-rule="nonzero" fill="rgb(9.019608%, 42.352941%, 50.980392%)" fill-opacity="1" d="M 277.238281 183.871094 C 277.238281 185.328125 275.050781 185.328125 275.050781 183.871094 C 275.050781 182.410156 277.238281 182.410156 277.238281 183.871094 "/>
<path fill-rule="nonzero" fill="rgb(9.019608%, 42.352941%, 50.980392%)" fill-opacity="1" d="M 302.566406 191.242188 C 302.566406 192.699219 300.378906 192.699219 300.378906 191.242188 C 300.378906 189.785156 302.566406 189.785156 302.566406 191.242188 "/>
<path fill-rule="nonzero" fill="rgb(9.019608%, 42.352941%, 50.980392%)" fill-opacity="1" d="M 315.226562 194.066406 C 315.226562 195.523438 313.039062 195.523438 313.039062 194.066406 C 313.039062 192.609375 315.226562 192.609375 315.226562 194.066406 "/>
<path fill-rule="nonzero" fill="rgb(9.019608%, 42.352941%, 50.980392%)" fill-opacity="1" d="M 327.890625 196.355469 C 327.890625 197.816406 325.703125 197.816406 325.703125 196.355469 C 325.703125 194.898438 327.890625 194.898438 327.890625 196.355469 "/>
<path fill-rule="nonzero" fill="rgb(9.019608%, 42.352941%, 50.980392%)" fill-opacity="1" d="M 340.554688 199 C 340.554688 200.457031 338.367188 200.457031 338.367188 199 C 338.367188 197.539062 340.554688 197.539062 340.554688 199 "/>
<path fill-rule="nonzero" fill="rgb(9.019608%, 42.352941%, 50.980392%)" fill-opacity="1" d="M 353.21875 201.015625 C 353.21875 202.472656 351.03125 202.472656 351.03125 201.015625 C 351.03125 199.558594 353.21875 199.558594 353.21875 201.015625 "/>
<path fill-rule="nonzero" fill="rgb(9.019608%, 42.352941%, 50.980392%)" fill-opacity="1" d="M 365.882812 202.503906 C 365.882812 203.960938 363.695312 203.960938 363.695312 202.503906 C 363.695312 201.046875 365.882812 201.046875 365.882812 202.503906 "/>
<path fill-rule="nonzero" fill="rgb(9.019608%, 42.352941%, 50.980392%)" fill-opacity="1" d="M 378.546875 204.101562 C 378.546875 205.558594 376.359375 205.558594 376.359375 204.101562 C 376.359375 202.640625 378.546875 202.640625 378.546875 204.101562 "/>
<path fill-rule="nonzero" fill="rgb(9.019608%, 42.352941%, 50.980392%)" fill-opacity="1" d="M 391.207031 205.144531 C 391.207031 206.601562 389.019531 206.601562 389.019531 205.144531 C 389.019531 203.683594 391.207031 203.683594 391.207031 205.144531 "/>
<path fill-rule="nonzero" fill="rgb(9.019608%, 42.352941%, 50.980392%)" fill-opacity="1" d="M 403.871094 206.152344 C 403.871094 207.609375 401.6875 207.609375 401.6875 206.152344 C 401.6875 204.695312 403.871094 204.695312 403.871094 206.152344 "/>
<path fill-rule="nonzero" fill="rgb(9.019608%, 42.352941%, 50.980392%)" fill-opacity="1" d="M 416.535156 206.886719 C 416.535156 208.34375 414.347656 208.34375 414.347656 206.886719 C 414.347656 205.425781 416.535156 205.425781 416.535156 206.886719 "/>
<g clip-path="url(#clip-15)">
<path fill-rule="nonzero" fill="rgb(9.019608%, 42.352941%, 50.980392%)" fill-opacity="1" d="M 429.199219 207.519531 C 429.199219 208.976562 427.011719 208.976562 427.011719 207.519531 C 427.011719 206.0625 429.199219 206.0625 429.199219 207.519531 "/>
</g>
<g clip-path="url(#clip-16)">
<path fill-rule="nonzero" fill="rgb(9.019608%, 42.352941%, 50.980392%)" fill-opacity="1" d="M 441.863281 207.9375 C 441.863281 209.394531 439.675781 209.394531 439.675781 207.9375 C 439.675781 206.480469 441.863281 206.480469 441.863281 207.9375 "/>
</g>
<g clip-path="url(#clip-17)">
<path fill-rule="nonzero" fill="rgb(9.019608%, 42.352941%, 50.980392%)" fill-opacity="1" d="M 454.527344 208.113281 C 454.527344 209.570312 452.339844 209.570312 452.339844 208.113281 C 452.339844 206.652344 454.527344 206.652344 454.527344 208.113281 "/>
</g>
<g clip-path="url(#clip-18)">
<path fill-rule="nonzero" fill="rgb(9.019608%, 42.352941%, 50.980392%)" fill-opacity="1" d="M 467.1875 208.15625 C 467.1875 209.613281 465.003906 209.613281 465.003906 208.15625 C 465.003906 206.695312 467.1875 206.695312 467.1875 208.15625 "/>
</g>
<g clip-path="url(#clip-19)">
<path fill-rule="nonzero" fill="rgb(9.019608%, 42.352941%, 50.980392%)" fill-opacity="1" d="M 479.851562 207.800781 C 479.851562 209.257812 477.667969 209.257812 477.667969 207.800781 C 477.667969 206.34375 479.851562 206.34375 479.851562 207.800781 "/>
</g>
<g clip-path="url(#clip-20)">
<path fill-rule="nonzero" fill="rgb(9.019608%, 42.352941%, 50.980392%)" fill-opacity="1" d="M 492.515625 207.511719 C 492.515625 208.96875 490.328125 208.96875 490.328125 207.511719 C 490.328125 206.050781 492.515625 206.050781 492.515625 207.511719 "/>
</g>
<g clip-path="url(#clip-21)">
<path fill="none" stroke-width="1.125" stroke-linecap="round" stroke-linejoin="round" stroke="rgb(78.039216%, 39.607843%, 27.058824%)" stroke-opacity="1" stroke-miterlimit="10" d="M 86.191406 117.980469 L 98.855469 139.25 L 111.519531 159.269531 L 124.183594 175.21875 L 136.847656 185.867188 L 149.507812 194.539062 L 162.171875 200.855469 L 174.835938 204.945312 L 187.5 207.328125 L 200.164062 208.15625 L 212.828125 207.742188 L 225.492188 206.445312 L 238.152344 205.226562 L 250.816406 202.304688 L 263.480469 198.691406 L 276.144531 194.878906 L 301.472656 186.023438 L 314.132812 181.226562 L 326.796875 176.152344 L 339.460938 171.035156 L 352.125 165.75 L 364.789062 160.191406 L 377.453125 154.78125 L 390.113281 148.984375 L 402.777344 143.402344 L 415.441406 138.011719 L 428.105469 132.59375 L 440.769531 126.929688 L 453.433594 121.359375 L 466.09375 115.761719 L 478.761719 110.046875 L 491.421875 104.433594 "/>
</g>
<path fill-rule="nonzero" fill="rgb(78.039216%, 39.607843%, 27.058824%)" fill-opacity="1" d="M 87.285156 117.980469 C 87.285156 119.4375 85.101562 119.4375 85.101562 117.980469 C 85.101562 116.523438 87.285156 116.523438 87.285156 117.980469 "/>
<path fill-rule="nonzero" fill="rgb(78.039216%, 39.607843%, 27.058824%)" fill-opacity="1" d="M 99.949219 139.25 C 99.949219 140.710938 97.761719 140.710938 97.761719 139.25 C 97.761719 137.792969 99.949219 137.792969 99.949219 139.25 "/>
<path fill-rule="nonzero" fill="rgb(78.039216%, 39.607843%, 27.058824%)" fill-opacity="1" d="M 112.613281 159.269531 C 112.613281 160.726562 110.425781 160.726562 110.425781 159.269531 C 110.425781 157.808594 112.613281 157.808594 112.613281 159.269531 "/>
<path fill-rule="nonzero" fill="rgb(78.039216%, 39.607843%, 27.058824%)" fill-opacity="1" d="M 125.277344 175.21875 C 125.277344 176.679688 123.089844 176.679688 123.089844 175.21875 C 123.089844 173.761719 125.277344 173.761719 125.277344 175.21875 "/>
<path fill-rule="nonzero" fill="rgb(78.039216%, 39.607843%, 27.058824%)" fill-opacity="1" d="M 137.941406 185.867188 C 137.941406 187.324219 135.753906 187.324219 135.753906 185.867188 C 135.753906 184.410156 137.941406 184.410156 137.941406 185.867188 "/>
<path fill-rule="nonzero" fill="rgb(78.039216%, 39.607843%, 27.058824%)" fill-opacity="1" d="M 150.601562 194.539062 C 150.601562 196 148.414062 196 148.414062 194.539062 C 148.414062 193.082031 150.601562 193.082031 150.601562 194.539062 "/>
<path fill-rule="nonzero" fill="rgb(78.039216%, 39.607843%, 27.058824%)" fill-opacity="1" d="M 163.265625 200.855469 C 163.265625 202.316406 161.082031 202.316406 161.082031 200.855469 C 161.082031 199.398438 163.265625 199.398438 163.265625 200.855469 "/>
<path fill-rule="nonzero" fill="rgb(78.039216%, 39.607843%, 27.058824%)" fill-opacity="1" d="M 175.929688 204.945312 C 175.929688 206.402344 173.742188 206.402344 173.742188 204.945312 C 173.742188 203.484375 175.929688 203.484375 175.929688 204.945312 "/>
<g clip-path="url(#clip-22)">
<path fill-rule="nonzero" fill="rgb(78.039216%, 39.607843%, 27.058824%)" fill-opacity="1" d="M 188.59375 207.328125 C 188.59375 208.785156 186.40625 208.785156 186.40625 207.328125 C 186.40625 205.871094 188.59375 205.871094 188.59375 207.328125 "/>
</g>
<g clip-path="url(#clip-23)">
<path fill-rule="nonzero" fill="rgb(78.039216%, 39.607843%, 27.058824%)" fill-opacity="1" d="M 201.257812 208.15625 C 201.257812 209.613281 199.070312 209.613281 199.070312 208.15625 C 199.070312 206.695312 201.257812 206.695312 201.257812 208.15625 "/>
</g>
<g clip-path="url(#clip-24)">
<path fill-rule="nonzero" fill="rgb(78.039216%, 39.607843%, 27.058824%)" fill-opacity="1" d="M 213.921875 207.742188 C 213.921875 209.199219 211.734375 209.199219 211.734375 207.742188 C 211.734375 206.285156 213.921875 206.285156 213.921875 207.742188 "/>
</g>
<path fill-rule="nonzero" fill="rgb(78.039216%, 39.607843%, 27.058824%)" fill-opacity="1" d="M 226.585938 206.445312 C 226.585938 207.902344 224.398438 207.902344 224.398438 206.445312 C 224.398438 204.988281 226.585938 204.988281 226.585938 206.445312 "/>
<path fill-rule="nonzero" fill="rgb(78.039216%, 39.607843%, 27.058824%)" fill-opacity="1" d="M 239.246094 205.226562 C 239.246094 206.683594 237.058594 206.683594 237.058594 205.226562 C 237.058594 203.769531 239.246094 203.769531 239.246094 205.226562 "/>
<path fill-rule="nonzero" fill="rgb(78.039216%, 39.607843%, 27.058824%)" fill-opacity="1" d="M 251.910156 202.304688 C 251.910156 203.761719 249.722656 203.761719 249.722656 202.304688 C 249.722656 200.847656 251.910156 200.847656 251.910156 202.304688 "/>
<path fill-rule="nonzero" fill="rgb(78.039216%, 39.607843%, 27.058824%)" fill-opacity="1" d="M 264.574219 198.691406 C 264.574219 200.152344 262.386719 200.152344 262.386719 198.691406 C 262.386719 197.234375 264.574219 197.234375 264.574219 198.691406 "/>
<path fill-rule="nonzero" fill="rgb(78.039216%, 39.607843%, 27.058824%)" fill-opacity="1" d="M 277.238281 194.878906 C 277.238281 196.339844 275.050781 196.339844 275.050781 194.878906 C 275.050781 193.421875 277.238281 193.421875 277.238281 194.878906 "/>
<path fill-rule="nonzero" fill="rgb(78.039216%, 39.607843%, 27.058824%)" fill-opacity="1" d="M 302.566406 186.023438 C 302.566406 187.484375 300.378906 187.484375 300.378906 186.023438 C 300.378906 184.566406 302.566406 184.566406 302.566406 186.023438 "/>
<path fill-rule="nonzero" fill="rgb(78.039216%, 39.607843%, 27.058824%)" fill-opacity="1" d="M 315.226562 181.226562 C 315.226562 182.6875 313.039062 182.6875 313.039062 181.226562 C 313.039062 179.769531 315.226562 179.769531 315.226562 181.226562 "/>
<path fill-rule="nonzero" fill="rgb(78.039216%, 39.607843%, 27.058824%)" fill-opacity="1" d="M 327.890625 176.152344 C 327.890625 177.609375 325.703125 177.609375 325.703125 176.152344 C 325.703125 174.691406 327.890625 174.691406 327.890625 176.152344 "/>
<path fill-rule="nonzero" fill="rgb(78.039216%, 39.607843%, 27.058824%)" fill-opacity="1" d="M 340.554688 171.035156 C 340.554688 172.496094 338.367188 172.496094 338.367188 171.035156 C 338.367188 169.578125 340.554688 169.578125 340.554688 171.035156 "/>
<path fill-rule="nonzero" fill="rgb(78.039216%, 39.607843%, 27.058824%)" fill-opacity="1" d="M 353.21875 165.75 C 353.21875 167.210938 351.03125 167.210938 351.03125 165.75 C 351.03125 164.292969 353.21875 164.292969 353.21875 165.75 "/>
<path fill-rule="nonzero" fill="rgb(78.039216%, 39.607843%, 27.058824%)" fill-opacity="1" d="M 365.882812 160.191406 C 365.882812 161.648438 363.695312 161.648438 363.695312 160.191406 C 363.695312 158.734375 365.882812 158.734375 365.882812 160.191406 "/>
<path fill-rule="nonzero" fill="rgb(78.039216%, 39.607843%, 27.058824%)" fill-opacity="1" d="M 378.546875 154.78125 C 378.546875 156.242188 376.359375 156.242188 376.359375 154.78125 C 376.359375 153.324219 378.546875 153.324219 378.546875 154.78125 "/>
<path fill-rule="nonzero" fill="rgb(78.039216%, 39.607843%, 27.058824%)" fill-opacity="1" d="M 391.207031 148.984375 C 391.207031 150.445312 389.019531 150.445312 389.019531 148.984375 C 389.019531 147.527344 391.207031 147.527344 391.207031 148.984375 "/>
<path fill-rule="nonzero" fill="rgb(78.039216%, 39.607843%, 27.058824%)" fill-opacity="1" d="M 403.871094 143.402344 C 403.871094 144.859375 401.6875 144.859375 401.6875 143.402344 C 401.6875 141.945312 403.871094 141.945312 403.871094 143.402344 "/>
<path fill-rule="nonzero" fill="rgb(78.039216%, 39.607843%, 27.058824%)" fill-opacity="1" d="M 416.535156 138.011719 C 416.535156 139.46875 414.347656 139.46875 414.347656 138.011719 C 414.347656 136.554688 416.535156 136.554688 416.535156 138.011719 "/>
<path fill-rule="nonzero" fill="rgb(78.039216%, 39.607843%, 27.058824%)" fill-opacity="1" d="M 429.199219 132.59375 C 429.199219 134.050781 427.011719 134.050781 427.011719 132.59375 C 427.011719 131.136719 429.199219 131.136719 429.199219 132.59375 "/>
<path fill-rule="nonzero" fill="rgb(78.039216%, 39.607843%, 27.058824%)" fill-opacity="1" d="M 441.863281 126.929688 C 441.863281 128.390625 439.675781 128.390625 439.675781 126.929688 C 439.675781 125.472656 441.863281 125.472656 441.863281 126.929688 "/>
<path fill-rule="nonzero" fill="rgb(78.039216%, 39.607843%, 27.058824%)" fill-opacity="1" d="M 454.527344 121.359375 C 454.527344 122.816406 452.339844 122.816406 452.339844 121.359375 C 452.339844 119.898438 454.527344 119.898438 454.527344 121.359375 "/>
<path fill-rule="nonzero" fill="rgb(78.039216%, 39.607843%, 27.058824%)" fill-opacity="1" d="M 467.1875 115.761719 C 467.1875 117.21875 465.003906 117.21875 465.003906 115.761719 C 465.003906 114.304688 467.1875 114.304688 467.1875 115.761719 "/>
<path fill-rule="nonzero" fill="rgb(78.039216%, 39.607843%, 27.058824%)" fill-opacity="1" d="M 479.851562 110.046875 C 479.851562 111.503906 477.667969 111.503906 477.667969 110.046875 C 477.667969 108.585938 479.851562 108.585938 479.851562 110.046875 "/>
<path fill-rule="nonzero" fill="rgb(78.039216%, 39.607843%, 27.058824%)" fill-opacity="1" d="M 492.515625 104.433594 C 492.515625 105.890625 490.328125 105.890625 490.328125 104.433594 C 490.328125 102.972656 492.515625 102.972656 492.515625 104.433594 "/>
<g fill="rgb(0%, 0%, 0%)" fill-opacity="1">
<use xlink:href="#glyph-4-0" x="69.984375" y="13.555664"/>
<use xlink:href="#glyph-4-1" x="75.984375" y="13.555664"/>
<use xlink:href="#glyph-4-2" x="80.984375" y="13.555664"/>
<use xlink:href="#glyph-4-3" x="86.984375" y="13.555664"/>
</g>
<path fill="none" stroke-width="1.125" stroke-linecap="round" stroke-linejoin="round" stroke="rgb(9.019608%, 42.352941%, 50.980392%)" stroke-opacity="1" stroke-miterlimit="10" d="M 199.359375 292.644531 L 214.523438 292.644531 "/>
<path fill="none" stroke-width="1.125" stroke-linecap="round" stroke-linejoin="round" stroke="rgb(78.039216%, 39.607843%, 27.058824%)" stroke-opacity="1" stroke-miterlimit="10" d="M 264.6875 292.644531 L 279.847656 292.644531 "/>
<g fill="rgb(0%, 0%, 0%)" fill-opacity="1">
<use xlink:href="#glyph-5-0" x="222.105469" y="295.285156"/>
<use xlink:href="#glyph-5-1" x="228.105469" y="295.285156"/>
<use xlink:href="#glyph-5-2" x="233.105469" y="295.285156"/>
<use xlink:href="#glyph-5-3" x="238.105469" y="295.285156"/>
<use xlink:href="#glyph-5-4" x="240.105469" y="295.285156"/>
<use xlink:href="#glyph-5-5" x="245.105469" y="295.285156"/>
<use xlink:href="#glyph-5-6" x="250.105469" y="295.285156"/>
<use xlink:href="#glyph-5-7" x="252.105469" y="295.285156"/>
</g>
<g fill="rgb(0%, 0%, 0%)" fill-opacity="1">
<use xlink:href="#glyph-5-0" x="287.429688" y="295.285156"/>
<use xlink:href="#glyph-5-1" x="293.429688" y="295.285156"/>
<use xlink:href="#glyph-5-2" x="298.429688" y="295.285156"/>
<use xlink:href="#glyph-5-3" x="303.429688" y="295.285156"/>
<use xlink:href="#glyph-5-4" x="305.429688" y="295.285156"/>
<use xlink:href="#glyph-5-5" x="310.429688" y="295.285156"/>
<use xlink:href="#glyph-5-6" x="315.429688" y="295.285156"/>
<use xlink:href="#glyph-5-8" x="317.429688" y="295.285156"/>
</g>
</svg>
