<?xml version="1.0" encoding="UTF-8"?>
<svg xmlns="http://www.w3.org/2000/svg" xmlns:xlink="http://www.w3.org/1999/xlink" width="518pt" height="324pt" viewBox="0 0 518 324" version="1.1">
<defs>
<g>
<symbol overflow="visible" id="glyph0-0">
<path style="stroke:none;" d=""/>
</symbol>
<symbol overflow="visible" id="glyph0-1">
<path style="stroke:none;" d="M 4.125 -0.703125 L 1.078125 -0.703125 C 1.15625 -1.203125 1.421875 -1.515625 2.125 -1.9375 L 2.9375 -2.390625 C 3.75 -2.84375 4.171875 -3.453125 4.171875 -4.171875 C 4.171875 -4.671875 3.96875 -5.125 3.625 -5.4375 C 3.28125 -5.75 2.859375 -5.890625 2.3125 -5.890625 C 1.578125 -5.890625 1.03125 -5.640625 0.71875 -5.125 C 0.515625 -4.828125 0.421875 -4.453125 0.40625 -3.859375 L 1.125 -3.859375 C 1.15625 -4.25 1.203125 -4.5 1.296875 -4.6875 C 1.484375 -5.046875 1.859375 -5.265625 2.296875 -5.265625 C 2.9375 -5.265625 3.4375 -4.796875 3.4375 -4.15625 C 3.4375 -3.6875 3.171875 -3.28125 2.65625 -2.984375 L 1.90625 -2.546875 C 0.6875 -1.84375 0.34375 -1.296875 0.28125 -0.015625 L 4.125 -0.015625 Z M 4.125 -0.703125 "/>
</symbol>
<symbol overflow="visible" id="glyph0-2">
<path style="stroke:none;" d="M 2.25 -5.890625 C 1.703125 -5.890625 1.21875 -5.65625 0.90625 -5.25 C 0.53125 -4.734375 0.34375 -3.953125 0.34375 -2.859375 C 0.34375 -0.859375 1 0.1875 2.25 0.1875 C 3.46875 0.1875 4.140625 -0.859375 4.140625 -2.8125 C 4.140625 -3.953125 3.953125 -4.71875 3.578125 -5.25 C 3.265625 -5.65625 2.796875 -5.890625 2.25 -5.890625 Z M 2.25 -5.265625 C 3.015625 -5.265625 3.40625 -4.46875 3.40625 -2.875 C 3.40625 -1.1875 3.03125 -0.40625 2.234375 -0.40625 C 1.46875 -0.40625 1.078125 -1.21875 1.078125 -2.84375 C 1.078125 -4.46875 1.46875 -5.265625 2.25 -5.265625 Z M 2.25 -5.265625 "/>
</symbol>
<symbol overflow="visible" id="glyph0-3">
<path style="stroke:none;" d="M 3.875 -5.78125 L 0.890625 -5.78125 L 0.46875 -2.640625 L 1.125 -2.640625 C 1.453125 -3.03125 1.734375 -3.171875 2.1875 -3.171875 C 2.96875 -3.171875 3.453125 -2.640625 3.453125 -1.78125 C 3.453125 -0.953125 2.96875 -0.453125 2.1875 -0.453125 C 1.5625 -0.453125 1.171875 -0.765625 1 -1.421875 L 0.28125 -1.421875 C 0.390625 -0.953125 0.46875 -0.71875 0.640625 -0.5 C 0.96875 -0.0625 1.546875 0.1875 2.203125 0.1875 C 3.375 0.1875 4.1875 -0.65625 4.1875 -1.890625 C 4.1875 -3.03125 3.421875 -3.8125 2.3125 -3.8125 C 1.90625 -3.8125 1.578125 -3.703125 1.25 -3.453125 L 1.46875 -5.078125 L 3.875 -5.078125 Z M 3.875 -5.78125 "/>
</symbol>
<symbol overflow="visible" id="glyph0-4">
<path style="stroke:none;" d="M 2.109375 -4.203125 L 2.109375 0 L 2.828125 0 L 2.828125 -5.890625 L 2.359375 -5.890625 C 2.109375 -4.984375 1.9375 -4.875 0.828125 -4.71875 L 0.828125 -4.203125 Z M 2.109375 -4.203125 "/>
</symbol>
<symbol overflow="visible" id="glyph0-5">
<path style="stroke:none;" d="M 1.5625 -0.84375 L 0.703125 -0.84375 L 0.703125 0 L 1.5625 0 Z M 1.5625 -0.84375 "/>
</symbol>
<symbol overflow="visible" id="glyph0-6">
<path style="stroke:none;" d="M 2.671875 -1.421875 L 2.671875 0 L 3.390625 0 L 3.390625 -1.421875 L 4.234375 -1.421875 L 4.234375 -2.078125 L 3.390625 -2.078125 L 3.390625 -5.890625 L 2.859375 -5.890625 L 0.234375 -2.1875 L 0.234375 -1.421875 Z M 2.671875 -2.078125 L 0.859375 -2.078125 L 2.671875 -4.671875 Z M 2.671875 -2.078125 "/>
</symbol>
<symbol overflow="visible" id="glyph0-7">
<path style="stroke:none;" d="M 4.0625 -4.359375 C 3.921875 -5.328125 3.296875 -5.890625 2.421875 -5.890625 C 1.78125 -5.890625 1.21875 -5.59375 0.875 -5.0625 C 0.5 -4.484375 0.34375 -3.765625 0.34375 -2.6875 C 0.34375 -1.703125 0.484375 -1.0625 0.84375 -0.546875 C 1.15625 -0.0625 1.65625 0.1875 2.296875 0.1875 C 3.390625 0.1875 4.1875 -0.640625 4.1875 -1.78125 C 4.1875 -2.875 3.453125 -3.640625 2.421875 -3.640625 C 1.84375 -3.640625 1.390625 -3.421875 1.078125 -3 C 1.09375 -4.453125 1.546875 -5.265625 2.375 -5.265625 C 2.875 -5.265625 3.234375 -4.9375 3.34375 -4.359375 Z M 2.328125 -3 C 3.015625 -3 3.453125 -2.515625 3.453125 -1.734375 C 3.453125 -0.984375 2.953125 -0.453125 2.296875 -0.453125 C 1.625 -0.453125 1.125 -1.015625 1.125 -1.765625 C 1.125 -2.5 1.609375 -3 2.328125 -3 Z M 2.328125 -3 "/>
</symbol>
<symbol overflow="visible" id="glyph0-8">
<path style="stroke:none;" d="M 3.1875 -3.109375 C 3.796875 -3.46875 3.984375 -3.765625 3.984375 -4.328125 C 3.984375 -5.25 3.265625 -5.890625 2.25 -5.890625 C 1.21875 -5.890625 0.5 -5.25 0.5 -4.328125 C 0.5 -3.765625 0.6875 -3.484375 1.28125 -3.109375 C 0.625 -2.765625 0.296875 -2.296875 0.296875 -1.640625 C 0.296875 -0.5625 1.09375 0.1875 2.25 0.1875 C 3.390625 0.1875 4.1875 -0.5625 4.1875 -1.640625 C 4.1875 -2.296875 3.859375 -2.765625 3.1875 -3.109375 Z M 2.25 -5.265625 C 2.859375 -5.265625 3.25 -4.890625 3.25 -4.3125 C 3.25 -3.75 2.84375 -3.390625 2.25 -3.390625 C 1.625 -3.390625 1.234375 -3.75 1.234375 -4.328125 C 1.234375 -4.890625 1.625 -5.265625 2.25 -5.265625 Z M 2.25 -2.78125 C 2.953125 -2.78125 3.453125 -2.3125 3.453125 -1.625 C 3.453125 -0.90625 2.96875 -0.453125 2.234375 -0.453125 C 1.53125 -0.453125 1.03125 -0.9375 1.03125 -1.609375 C 1.03125 -2.3125 1.515625 -2.78125 2.25 -2.78125 Z M 2.25 -2.78125 "/>
</symbol>
<symbol overflow="visible" id="glyph1-0">
<path style="stroke:none;" d=""/>
</symbol>
<symbol overflow="visible" id="glyph1-1">
<path style="stroke:none;" d="M 3.71875 -2.75 L 6.34375 -7 L 5.28125 -7 L 3.28125 -3.59375 L 1.234375 -7 L 0.125 -7 L 2.828125 -2.75 L 2.828125 0 L 3.71875 0 Z M 3.71875 -2.75 "/>
</symbol>
<symbol overflow="visible" id="glyph1-2">
<path style="stroke:none;" d="M 4.921875 -2.25 C 4.921875 -3.015625 4.859375 -3.46875 4.71875 -3.84375 C 4.390625 -4.671875 3.625 -5.171875 2.6875 -5.171875 C 1.28125 -5.171875 0.390625 -4.109375 0.390625 -2.453125 C 0.390625 -0.78125 1.25 0.21875 2.671875 0.21875 C 3.8125 0.21875 4.609375 -0.4375 4.8125 -1.53125 L 4.015625 -1.53125 C 3.796875 -0.859375 3.34375 -0.515625 2.703125 -0.515625 C 2.1875 -0.515625 1.75 -0.75 1.484375 -1.171875 C 1.296875 -1.453125 1.234375 -1.75 1.21875 -2.25 Z M 1.234375 -2.890625 C 1.3125 -3.828125 1.875 -4.4375 2.671875 -4.4375 C 3.484375 -4.4375 4.0625 -3.796875 4.0625 -2.890625 Z M 1.234375 -2.890625 "/>
</symbol>
<symbol overflow="visible" id="glyph1-3">
<path style="stroke:none;" d="M 5.125 -0.46875 C 5.046875 -0.453125 5.015625 -0.453125 4.953125 -0.453125 C 4.6875 -0.453125 4.53125 -0.59375 4.53125 -0.84375 L 4.53125 -3.796875 C 4.53125 -4.6875 3.875 -5.171875 2.640625 -5.171875 C 1.90625 -5.171875 1.3125 -4.953125 0.96875 -4.578125 C 0.734375 -4.328125 0.640625 -4.03125 0.625 -3.546875 L 1.421875 -3.546875 C 1.5 -4.15625 1.859375 -4.4375 2.609375 -4.4375 C 3.34375 -4.4375 3.734375 -4.15625 3.734375 -3.6875 L 3.734375 -3.46875 C 3.71875 -3.125 3.546875 -3 2.890625 -2.921875 C 1.765625 -2.765625 1.59375 -2.734375 1.28125 -2.609375 C 0.703125 -2.359375 0.40625 -1.921875 0.40625 -1.265625 C 0.40625 -0.359375 1.03125 0.21875 2.046875 0.21875 C 2.6875 0.21875 3.1875 0 3.765625 -0.515625 C 3.8125 0 4.0625 0.21875 4.578125 0.21875 C 4.765625 0.21875 4.859375 0.203125 5.125 0.140625 Z M 3.734375 -1.578125 C 3.734375 -1.3125 3.65625 -1.15625 3.421875 -0.9375 C 3.09375 -0.640625 2.703125 -0.484375 2.21875 -0.484375 C 1.609375 -0.484375 1.234375 -0.78125 1.234375 -1.28125 C 1.234375 -1.8125 1.578125 -2.078125 2.453125 -2.203125 C 3.296875 -2.328125 3.46875 -2.359375 3.734375 -2.484375 Z M 3.734375 -1.578125 "/>
</symbol>
<symbol overflow="visible" id="glyph1-4">
<path style="stroke:none;" d="M 0.65625 -5.03125 L 0.65625 0 L 1.46875 0 L 1.46875 -2.609375 C 1.484375 -3.8125 1.96875 -4.359375 3.078125 -4.328125 L 3.078125 -5.140625 C 2.9375 -5.15625 2.875 -5.171875 2.765625 -5.171875 C 2.25 -5.171875 1.859375 -4.859375 1.40625 -4.109375 L 1.40625 -5.03125 Z M 0.65625 -5.03125 "/>
</symbol>
<symbol overflow="visible" id="glyph2-0">
<path style="stroke:none;" d=""/>
</symbol>
<symbol overflow="visible" id="glyph2-1">
<path style="stroke:none;" d="M -3.1875 -1.75 L -3.1875 -5.09375 L -3.96875 -5.09375 L -3.96875 -1.75 L -6.203125 -1.75 L -6.203125 -5.5625 L -7 -5.5625 L -7 -0.859375 L 0 -0.859375 L 0 -1.75 Z M -3.1875 -1.75 "/>
</symbol>
<symbol overflow="visible" id="glyph2-2">
<path style="stroke:none;" d="M -5.03125 -1.4375 L -5.03125 -0.640625 L 0 -0.640625 L 0 -1.4375 Z M -7 -1.4375 L -7 -0.640625 L -5.984375 -0.640625 L -5.984375 -1.4375 Z M -7 -1.4375 "/>
</symbol>
<symbol overflow="visible" id="glyph2-3">
<path style="stroke:none;" d="M -3.625 -4.203125 C -4.609375 -4.1875 -5.171875 -3.546875 -5.171875 -2.375 C -5.171875 -1.203125 -4.5625 -0.453125 -3.640625 -0.453125 C -2.84375 -0.453125 -2.46875 -0.859375 -2.1875 -2.046875 L -2 -2.796875 C -1.875 -3.34375 -1.671875 -3.5625 -1.3125 -3.5625 C -0.828125 -3.5625 -0.515625 -3.09375 -0.515625 -2.390625 C -0.515625 -1.96875 -0.640625 -1.609375 -0.859375 -1.40625 C -1 -1.28125 -1.140625 -1.21875 -1.5 -1.171875 L -1.5 -0.328125 C -0.328125 -0.359375 0.21875 -1.015625 0.21875 -2.328125 C 0.21875 -3.59375 -0.40625 -4.40625 -1.375 -4.40625 C -2.125 -4.40625 -2.53125 -3.984375 -2.765625 -2.984375 L -2.953125 -2.21875 C -3.109375 -1.5625 -3.3125 -1.28125 -3.671875 -1.28125 C -4.140625 -1.28125 -4.4375 -1.703125 -4.4375 -2.34375 C -4.4375 -3 -4.15625 -3.34375 -3.625 -3.359375 Z M -3.625 -4.203125 "/>
</symbol>
<symbol overflow="visible" id="glyph2-4">
<path style="stroke:none;" d="M -7 -0.671875 L 0 -0.671875 L 0 -1.46875 L -2.765625 -1.46875 C -3.796875 -1.46875 -4.46875 -2 -4.46875 -2.828125 C -4.46875 -3.09375 -4.390625 -3.34375 -4.25 -3.546875 C -4.078125 -3.765625 -3.84375 -3.859375 -3.484375 -3.859375 L 0 -3.859375 L 0 -4.65625 L -3.796875 -4.65625 C -4.640625 -4.65625 -5.171875 -4.0625 -5.171875 -3.078125 C -5.171875 -2.375 -4.953125 -1.9375 -4.34375 -1.46875 L -7 -1.46875 Z M -7 -0.671875 "/>
</symbol>
<symbol overflow="visible" id="glyph2-5">
<path style="stroke:none;" d="M -5.03125 -0.671875 L 0 -0.671875 L 0 -1.484375 L -2.765625 -1.484375 C -3.796875 -1.484375 -4.46875 -2.015625 -4.46875 -2.84375 C -4.46875 -3.46875 -4.09375 -3.875 -3.484375 -3.875 L 0 -3.875 L 0 -4.671875 L -3.796875 -4.671875 C -4.640625 -4.671875 -5.171875 -4.046875 -5.171875 -3.078125 C -5.171875 -2.328125 -4.890625 -1.859375 -4.1875 -1.40625 L -5.03125 -1.40625 Z M -5.03125 -0.671875 "/>
</symbol>
<symbol overflow="visible" id="glyph2-6">
<path style="stroke:none;" d="M -5.03125 -3.875 L -4.296875 -3.875 C -4.90625 -3.46875 -5.171875 -3.03125 -5.171875 -2.390625 C -5.171875 -1.1875 -4.03125 -0.328125 -2.421875 -0.328125 C -1.578125 -0.328125 -0.96875 -0.53125 -0.453125 -0.96875 C -0.015625 -1.34375 0.21875 -1.828125 0.21875 -2.34375 C 0.21875 -2.9375 -0.046875 -3.375 -0.6875 -3.796875 L -0.421875 -3.796875 C 0.921875 -3.796875 1.421875 -3.421875 1.421875 -2.421875 C 1.421875 -1.75 1.15625 -1.390625 0.578125 -1.3125 L 0.578125 -0.5 C 1.5 -0.578125 2.09375 -1.3125 2.09375 -2.40625 C 2.09375 -3.140625 1.859375 -3.765625 1.453125 -4.09375 C 0.984375 -4.46875 0.359375 -4.609375 -0.828125 -4.609375 L -5.03125 -4.609375 Z M -4.4375 -2.46875 C -4.4375 -3.3125 -3.71875 -3.796875 -2.453125 -3.796875 C -1.234375 -3.796875 -0.515625 -3.3125 -0.515625 -2.46875 C -0.515625 -1.65625 -1.234375 -1.171875 -2.46875 -1.171875 C -3.703125 -1.171875 -4.4375 -1.65625 -4.4375 -2.46875 Z M -4.4375 -2.46875 "/>
</symbol>
<symbol overflow="visible" id="glyph2-7">
<path style="stroke:none;" d=""/>
</symbol>
<symbol overflow="visible" id="glyph2-8">
<path style="stroke:none;" d="M -5.03125 -0.671875 L 0 -0.671875 L 0 -1.484375 L -3.15625 -1.484375 C -3.890625 -1.484375 -4.46875 -2 -4.46875 -2.65625 C -4.46875 -3.25 -4.109375 -3.59375 -3.46875 -3.59375 L 0 -3.59375 L 0 -4.390625 L -3.15625 -4.390625 C -3.890625 -4.390625 -4.46875 -4.921875 -4.46875 -5.578125 C -4.46875 -6.15625 -4.09375 -6.5 -3.46875 -6.5 L 0 -6.5 L 0 -7.3125 L -3.765625 -7.3125 C -4.671875 -7.3125 -5.171875 -6.796875 -5.171875 -5.859375 C -5.171875 -5.1875 -4.96875 -4.78125 -4.40625 -4.3125 C -4.9375 -4.015625 -5.171875 -3.609375 -5.171875 -2.953125 C -5.171875 -2.28125 -4.921875 -1.828125 -4.3125 -1.40625 L -5.03125 -1.40625 Z M -5.03125 -0.671875 "/>
</symbol>
<symbol overflow="visible" id="glyph2-9">
<path style="stroke:none;" d="M -5.171875 -2.609375 C -5.171875 -1.1875 -4.15625 -0.34375 -2.46875 -0.34375 C -0.78125 -0.34375 0.21875 -1.1875 0.21875 -2.625 C 0.21875 -4.03125 -0.78125 -4.890625 -2.4375 -4.890625 C -4.1875 -4.890625 -5.171875 -4.0625 -5.171875 -2.609375 Z M -4.4375 -2.625 C -4.4375 -3.515625 -3.6875 -4.0625 -2.453125 -4.0625 C -1.25 -4.0625 -0.515625 -3.5 -0.515625 -2.625 C -0.515625 -1.734375 -1.25 -1.1875 -2.46875 -1.1875 C -3.6875 -1.1875 -4.4375 -1.734375 -4.4375 -2.625 Z M -4.4375 -2.625 "/>
</symbol>
<symbol overflow="visible" id="glyph2-10">
<path style="stroke:none;" d="M -5.03125 -0.65625 L 0 -0.65625 L 0 -1.46875 L -2.609375 -1.46875 C -3.8125 -1.484375 -4.359375 -1.96875 -4.328125 -3.078125 L -5.140625 -3.078125 C -5.15625 -2.9375 -5.171875 -2.875 -5.171875 -2.765625 C -5.171875 -2.25 -4.859375 -1.859375 -4.109375 -1.40625 L -5.03125 -1.40625 Z M -5.03125 -0.65625 "/>
</symbol>
<symbol overflow="visible" id="glyph2-11">
<path style="stroke:none;" d="M -5.03125 -2.4375 L -5.03125 -1.609375 L -6.40625 -1.609375 L -6.40625 -0.8125 L -5.03125 -0.8125 L -5.03125 -0.140625 L -4.375 -0.140625 L -4.375 -0.8125 L -0.578125 -0.8125 C -0.0625 -0.8125 0.21875 -1.15625 0.21875 -1.78125 C 0.21875 -2 0.203125 -2.171875 0.15625 -2.4375 L -0.515625 -2.4375 C -0.484375 -2.328125 -0.484375 -2.21875 -0.484375 -2.046875 C -0.484375 -1.703125 -0.578125 -1.609375 -0.9375 -1.609375 L -4.375 -1.609375 L -4.375 -2.4375 Z M -5.03125 -2.4375 "/>
</symbol>
<symbol overflow="visible" id="glyph2-12">
<path style="stroke:none;" d="M -0.46875 -5.125 C -0.453125 -5.046875 -0.453125 -5.015625 -0.453125 -4.953125 C -0.453125 -4.6875 -0.59375 -4.53125 -0.84375 -4.53125 L -3.796875 -4.53125 C -4.6875 -4.53125 -5.171875 -3.875 -5.171875 -2.640625 C -5.171875 -1.90625 -4.953125 -1.3125 -4.578125 -0.96875 C -4.328125 -0.734375 -4.03125 -0.640625 -3.546875 -0.625 L -3.546875 -1.421875 C -4.15625 -1.5 -4.4375 -1.859375 -4.4375 -2.609375 C -4.4375 -3.34375 -4.15625 -3.734375 -3.6875 -3.734375 L -3.46875 -3.734375 C -3.125 -3.71875 -3 -3.546875 -2.921875 -2.890625 C -2.765625 -1.765625 -2.734375 -1.59375 -2.609375 -1.28125 C -2.359375 -0.703125 -1.921875 -0.40625 -1.265625 -0.40625 C -0.359375 -0.40625 0.21875 -1.03125 0.21875 -2.046875 C 0.21875 -2.6875 0 -3.1875 -0.515625 -3.765625 C 0 -3.8125 0.21875 -4.0625 0.21875 -4.578125 C 0.21875 -4.765625 0.203125 -4.859375 0.140625 -5.125 Z M -1.578125 -3.734375 C -1.3125 -3.734375 -1.15625 -3.65625 -0.9375 -3.421875 C -0.640625 -3.09375 -0.484375 -2.703125 -0.484375 -2.21875 C -0.484375 -1.609375 -0.78125 -1.234375 -1.28125 -1.234375 C -1.8125 -1.234375 -2.078125 -1.578125 -2.203125 -2.453125 C -2.328125 -3.296875 -2.359375 -3.46875 -2.484375 -3.734375 Z M -1.578125 -3.734375 "/>
</symbol>
<symbol overflow="visible" id="glyph2-13">
<path style="stroke:none;" d="M -7 -1.453125 L -7 -0.65625 L 0 -0.65625 L 0 -1.453125 Z M -7 -1.453125 "/>
</symbol>
<symbol overflow="visible" id="glyph2-14">
<path style="stroke:none;" d="M -5.03125 -3.71875 L -1.109375 -2.328125 L -5.03125 -1.046875 L -5.03125 -0.1875 L 0.015625 -1.890625 L 0.8125 -1.578125 C 1.171875 -1.453125 1.3125 -1.28125 1.3125 -0.9375 C 1.3125 -0.8125 1.28125 -0.6875 1.25 -0.515625 L 1.96875 -0.515625 C 2.046875 -0.6875 2.09375 -0.84375 2.09375 -1.0625 C 2.09375 -1.3125 2 -1.59375 1.859375 -1.796875 C 1.671875 -2.046875 1.453125 -2.203125 1.0625 -2.34375 L -5.03125 -4.578125 Z M -5.03125 -3.71875 "/>
</symbol>
<symbol overflow="visible" id="glyph2-15">
<path style="stroke:none;" d="M -7 -2.265625 C -5.734375 -1.3125 -3.984375 -0.703125 -2.484375 -0.703125 C -0.96875 -0.703125 0.78125 -1.3125 2.03125 -2.265625 L 2.03125 -2.796875 C 0.65625 -1.953125 -0.953125 -1.484375 -2.484375 -1.484375 C -4.015625 -1.484375 -5.625 -1.953125 -7 -2.796875 Z M -7 -2.265625 "/>
</symbol>
<symbol overflow="visible" id="glyph2-16">
<path style="stroke:none;" d="M -2.25 -4.921875 C -3.015625 -4.921875 -3.46875 -4.859375 -3.84375 -4.71875 C -4.671875 -4.390625 -5.171875 -3.625 -5.171875 -2.6875 C -5.171875 -1.28125 -4.109375 -0.390625 -2.453125 -0.390625 C -0.78125 -0.390625 0.21875 -1.25 0.21875 -2.671875 C 0.21875 -3.8125 -0.4375 -4.609375 -1.53125 -4.8125 L -1.53125 -4.015625 C -0.859375 -3.796875 -0.515625 -3.34375 -0.515625 -2.703125 C -0.515625 -2.1875 -0.75 -1.75 -1.171875 -1.484375 C -1.453125 -1.296875 -1.75 -1.234375 -2.25 -1.21875 Z M -2.890625 -1.234375 C -3.828125 -1.3125 -4.4375 -1.875 -4.4375 -2.671875 C -4.4375 -3.484375 -3.796875 -4.0625 -2.890625 -4.0625 Z M -2.890625 -1.234375 "/>
</symbol>
<symbol overflow="visible" id="glyph2-17">
<path style="stroke:none;" d="M 2.03125 -0.890625 C 0.78125 -1.859375 -0.96875 -2.453125 -2.46875 -2.453125 C -3.984375 -2.453125 -5.734375 -1.859375 -7 -0.890625 L -7 -0.359375 C -5.625 -1.203125 -4.015625 -1.671875 -2.46875 -1.671875 C -0.953125 -1.671875 0.671875 -1.203125 2.03125 -0.359375 Z M 2.03125 -0.890625 "/>
</symbol>
<symbol overflow="visible" id="glyph3-0">
<path style="stroke:none;" d="M 1.1875 -0.328125 L -4.734375 -0.328125 L -4.734375 -3.6875 L 1.1875 -3.6875 Z M 0.8125 -0.71875 L 0.8125 -3.3125 L -4.359375 -3.3125 L -4.359375 -0.71875 Z M 0.8125 -0.71875 "/>
</symbol>
<symbol overflow="visible" id="glyph3-1">
<path style="stroke:none;" d="M -2.390625 -0.71875 L -2.390625 -4.921875 L -1.828125 -4.921875 L -1.828125 -0.71875 Z M -2.390625 -0.71875 "/>
</symbol>
<symbol overflow="visible" id="glyph4-0">
<path style="stroke:none;" d=""/>
</symbol>
<symbol overflow="visible" id="glyph4-1">
<path style="stroke:none;" d="M -3.453125 -1.734375 L 0 -1.734375 L 0 -2.328125 L -4.859375 -2.328125 L -4.859375 -1.9375 C -4.109375 -1.734375 -4.015625 -1.59375 -3.890625 -0.6875 L -3.453125 -0.6875 Z M -3.453125 -1.734375 "/>
</symbol>
<symbol overflow="visible" id="glyph5-0">
<path style="stroke:none;" d=""/>
</symbol>
<symbol overflow="visible" id="glyph5-1">
<path style="stroke:none;" d="M 2.078125 -4.546875 L 2.078125 -1.34375 C 2.078125 -0.984375 2.03125 -0.78125 1.9375 -0.625 C 1.828125 -0.453125 1.609375 -0.34375 1.375 -0.34375 C 0.9375 -0.34375 0.703125 -0.640625 0.703125 -1.171875 L 0.703125 -1.453125 L 0.109375 -1.453125 L 0.109375 -1.0625 C 0.109375 -0.328125 0.59375 0.140625 1.375 0.140625 C 2.15625 0.140625 2.65625 -0.34375 2.65625 -1.140625 L 2.65625 -4.546875 Z M 2.078125 -4.546875 "/>
</symbol>
<symbol overflow="visible" id="glyph5-2">
<path style="stroke:none;" d="M 3 0 L 3 -3.265625 L 2.484375 -3.265625 L 2.484375 -1.421875 C 2.484375 -0.75 2.140625 -0.3125 1.59375 -0.3125 C 1.1875 -0.3125 0.921875 -0.5625 0.921875 -0.953125 L 0.921875 -3.265625 L 0.40625 -3.265625 L 0.40625 -0.75 C 0.40625 -0.203125 0.8125 0.140625 1.453125 0.140625 C 1.921875 0.140625 2.234375 -0.03125 2.53125 -0.453125 L 2.53125 0 Z M 3 0 "/>
</symbol>
<symbol overflow="visible" id="glyph5-3">
<path style="stroke:none;" d="M 1.78125 0 L 3.03125 -3.265625 L 2.4375 -3.265625 L 1.515625 -0.625 L 0.640625 -3.265625 L 0.0625 -3.265625 L 1.203125 0 Z M 1.78125 0 "/>
</symbol>
<symbol overflow="visible" id="glyph5-4">
<path style="stroke:none;" d="M 3.203125 -1.453125 C 3.203125 -1.953125 3.15625 -2.25 3.0625 -2.5 C 2.859375 -3.03125 2.359375 -3.359375 1.75 -3.359375 C 0.828125 -3.359375 0.25 -2.671875 0.25 -1.59375 C 0.25 -0.515625 0.8125 0.140625 1.734375 0.140625 C 2.484375 0.140625 3 -0.28125 3.125 -0.984375 L 2.609375 -0.984375 C 2.46875 -0.5625 2.171875 -0.34375 1.75 -0.34375 C 1.421875 -0.34375 1.140625 -0.484375 0.96875 -0.765625 C 0.84375 -0.953125 0.796875 -1.140625 0.796875 -1.453125 Z M 0.796875 -1.875 C 0.84375 -2.484375 1.21875 -2.875 1.734375 -2.875 C 2.265625 -2.875 2.640625 -2.46875 2.640625 -1.875 Z M 0.796875 -1.875 "/>
</symbol>
<symbol overflow="visible" id="glyph5-5">
<path style="stroke:none;" d="M 0.4375 -3.265625 L 0.4375 0 L 0.953125 0 L 0.953125 -1.796875 C 0.953125 -2.46875 1.3125 -2.90625 1.84375 -2.90625 C 2.25 -2.90625 2.515625 -2.65625 2.515625 -2.265625 L 2.515625 0 L 3.03125 0 L 3.03125 -2.46875 C 3.03125 -3.015625 2.625 -3.359375 2 -3.359375 C 1.515625 -3.359375 1.203125 -3.171875 0.921875 -2.71875 L 0.921875 -3.265625 Z M 0.4375 -3.265625 "/>
</symbol>
<symbol overflow="visible" id="glyph5-6">
<path style="stroke:none;" d="M 0.9375 -3.265625 L 0.421875 -3.265625 L 0.421875 0 L 0.9375 0 Z M 0.9375 -4.546875 L 0.40625 -4.546875 L 0.40625 -3.890625 L 0.9375 -3.890625 Z M 0.9375 -4.546875 "/>
</symbol>
<symbol overflow="visible" id="glyph5-7">
<path style="stroke:none;" d="M 0.953125 -4.546875 L 0.421875 -4.546875 L 0.421875 0 L 0.953125 0 Z M 0.953125 -4.546875 "/>
</symbol>
<symbol overflow="visible" id="glyph5-8">
<path style="stroke:none;" d="M 2.953125 -1.359375 L 3.421875 0 L 4.078125 0 L 2.46875 -4.546875 L 1.734375 -4.546875 L 0.109375 0 L 0.71875 0 L 1.203125 -1.359375 Z M 2.796875 -1.859375 L 1.34375 -1.859375 L 2.09375 -3.921875 Z M 2.796875 -1.859375 "/>
</symbol>
<symbol overflow="visible" id="glyph5-9">
<path style="stroke:none;" d="M 3.09375 -4.546875 L 2.5625 -4.546875 L 2.5625 -2.859375 C 2.34375 -3.1875 2 -3.359375 1.5625 -3.359375 C 0.71875 -3.359375 0.15625 -2.6875 0.15625 -1.640625 C 0.15625 -0.53125 0.703125 0.140625 1.578125 0.140625 C 2.03125 0.140625 2.34375 -0.03125 2.625 -0.4375 L 2.625 0 L 3.09375 0 Z M 1.65625 -2.875 C 2.21875 -2.875 2.5625 -2.375 2.5625 -1.59375 C 2.5625 -0.84375 2.203125 -0.34375 1.65625 -0.34375 C 1.078125 -0.34375 0.703125 -0.84375 0.703125 -1.609375 C 0.703125 -2.375 1.078125 -2.875 1.65625 -2.875 Z M 1.65625 -2.875 "/>
</symbol>
<symbol overflow="visible" id="glyph5-10">
<path style="stroke:none;" d="M 1.578125 -3.265625 L 1.046875 -3.265625 L 1.046875 -4.171875 L 0.53125 -4.171875 L 0.53125 -3.265625 L 0.09375 -3.265625 L 0.09375 -2.84375 L 0.53125 -2.84375 L 0.53125 -0.375 C 0.53125 -0.03125 0.75 0.140625 1.15625 0.140625 C 1.296875 0.140625 1.40625 0.125 1.578125 0.09375 L 1.578125 -0.34375 C 1.515625 -0.3125 1.4375 -0.3125 1.328125 -0.3125 C 1.109375 -0.3125 1.046875 -0.375 1.046875 -0.609375 L 1.046875 -2.84375 L 1.578125 -2.84375 Z M 1.578125 -3.265625 "/>
</symbol>
<symbol overflow="visible" id="glyph6-0">
<path style="stroke:none;" d=""/>
</symbol>
<symbol overflow="visible" id="glyph6-1">
<path style="stroke:none;" d="M 1.453125 -2.453125 L 3.328125 -2.453125 C 3.96875 -2.453125 4.25 -2.140625 4.25 -1.4375 L 4.25 -0.921875 C 4.25 -0.578125 4.3125 -0.234375 4.40625 0 L 5.296875 0 L 5.296875 -0.171875 C 5.015625 -0.359375 4.96875 -0.5625 4.953125 -1.328125 C 4.9375 -2.265625 4.796875 -2.546875 4.171875 -2.8125 C 4.8125 -3.125 5.078125 -3.515625 5.078125 -4.15625 C 5.078125 -5.140625 4.46875 -5.6875 3.34375 -5.6875 L 0.71875 -5.6875 L 0.71875 0 L 1.453125 0 Z M 1.453125 -3.09375 L 1.453125 -5.046875 L 3.203125 -5.046875 C 3.609375 -5.046875 3.84375 -4.984375 4.015625 -4.828125 C 4.21875 -4.65625 4.3125 -4.40625 4.3125 -4.0625 C 4.3125 -3.390625 3.96875 -3.09375 3.203125 -3.09375 Z M 1.453125 -3.09375 "/>
</symbol>
<symbol overflow="visible" id="glyph6-2">
<path style="stroke:none;" d="M 4 -1.828125 C 4 -2.453125 3.953125 -2.828125 3.84375 -3.125 C 3.578125 -3.796875 2.953125 -4.203125 2.1875 -4.203125 C 1.046875 -4.203125 0.3125 -3.34375 0.3125 -1.984375 C 0.3125 -0.640625 1.015625 0.171875 2.171875 0.171875 C 3.109375 0.171875 3.75 -0.34375 3.90625 -1.234375 L 3.265625 -1.234375 C 3.078125 -0.703125 2.71875 -0.421875 2.1875 -0.421875 C 1.78125 -0.421875 1.421875 -0.609375 1.203125 -0.953125 C 1.046875 -1.1875 1 -1.421875 0.984375 -1.828125 Z M 1 -2.359375 C 1.0625 -3.109375 1.515625 -3.609375 2.171875 -3.609375 C 2.84375 -3.609375 3.296875 -3.09375 3.296875 -2.359375 Z M 1 -2.359375 "/>
</symbol>
<symbol overflow="visible" id="glyph6-3">
<path style="stroke:none;" d="M 3.15625 -4.078125 L 3.15625 -3.5 C 2.828125 -3.984375 2.46875 -4.203125 1.953125 -4.203125 C 0.953125 -4.203125 0.265625 -3.28125 0.265625 -1.96875 C 0.265625 -1.28125 0.4375 -0.78125 0.78125 -0.375 C 1.09375 -0.015625 1.484375 0.171875 1.90625 0.171875 C 2.390625 0.171875 2.75 -0.03125 3.09375 -0.546875 L 3.09375 -0.34375 C 3.09375 0.75 2.78125 1.15625 1.96875 1.15625 C 1.421875 1.15625 1.125 0.9375 1.0625 0.46875 L 0.40625 0.46875 C 0.46875 1.21875 1.0625 1.703125 1.953125 1.703125 C 2.5625 1.703125 3.0625 1.5 3.328125 1.171875 C 3.640625 0.796875 3.75 0.28125 3.75 -0.671875 L 3.75 -4.078125 Z M 2.015625 -3.609375 C 2.703125 -3.609375 3.09375 -3.03125 3.09375 -1.984375 C 3.09375 -1 2.6875 -0.421875 2.015625 -0.421875 C 1.34375 -0.421875 0.953125 -1 0.953125 -2.015625 C 0.953125 -3.015625 1.34375 -3.609375 2.015625 -3.609375 Z M 2.015625 -3.609375 "/>
</symbol>
<symbol overflow="visible" id="glyph6-4">
<path style="stroke:none;" d="M 1.171875 -4.078125 L 0.515625 -4.078125 L 0.515625 0 L 1.171875 0 Z M 1.171875 -5.6875 L 0.515625 -5.6875 L 0.515625 -4.859375 L 1.171875 -4.859375 Z M 1.171875 -5.6875 "/>
</symbol>
<symbol overflow="visible" id="glyph6-5">
<path style="stroke:none;" d="M 2.125 -4.203125 C 0.96875 -4.203125 0.28125 -3.390625 0.28125 -2.015625 C 0.28125 -0.625 0.96875 0.171875 2.125 0.171875 C 3.28125 0.171875 3.96875 -0.640625 3.96875 -1.984375 C 3.96875 -3.40625 3.3125 -4.203125 2.125 -4.203125 Z M 2.125 -3.609375 C 2.859375 -3.609375 3.296875 -3 3.296875 -1.984375 C 3.296875 -1.015625 2.84375 -0.421875 2.125 -0.421875 C 1.40625 -0.421875 0.953125 -1.015625 0.953125 -2.015625 C 0.953125 -3 1.40625 -3.609375 2.125 -3.609375 Z M 2.125 -3.609375 "/>
</symbol>
<symbol overflow="visible" id="glyph6-6">
<path style="stroke:none;" d="M 0.546875 -4.078125 L 0.546875 0 L 1.203125 0 L 1.203125 -2.25 C 1.203125 -3.09375 1.640625 -3.640625 2.3125 -3.640625 C 2.828125 -3.640625 3.15625 -3.328125 3.15625 -2.828125 L 3.15625 0 L 3.796875 0 L 3.796875 -3.09375 C 3.796875 -3.765625 3.296875 -4.203125 2.5 -4.203125 C 1.890625 -4.203125 1.5 -3.96875 1.140625 -3.40625 L 1.140625 -4.078125 Z M 0.546875 -4.078125 "/>
</symbol>
<symbol overflow="visible" id="glyph6-7">
<path style="stroke:none;" d=""/>
</symbol>
<symbol overflow="visible" id="glyph6-8">
<path style="stroke:none;" d="M 2.015625 -4.015625 L 2.015625 0 L 2.703125 0 L 2.703125 -5.640625 L 2.25 -5.640625 C 2.015625 -4.765625 1.859375 -4.65625 0.796875 -4.515625 L 0.796875 -4.015625 Z M 2.015625 -4.015625 "/>
</symbol>
<symbol overflow="visible" id="glyph6-9">
<path style="stroke:none;" d="M 3.9375 -0.671875 L 1.03125 -0.671875 C 1.109375 -1.140625 1.359375 -1.4375 2.03125 -1.859375 L 2.8125 -2.296875 C 3.59375 -2.71875 3.984375 -3.296875 3.984375 -3.984375 C 3.984375 -4.453125 3.796875 -4.890625 3.46875 -5.203125 C 3.140625 -5.5 2.734375 -5.640625 2.21875 -5.640625 C 1.515625 -5.640625 0.984375 -5.390625 0.6875 -4.90625 C 0.484375 -4.609375 0.40625 -4.25 0.390625 -3.6875 L 1.078125 -3.6875 C 1.09375 -4.0625 1.140625 -4.296875 1.234375 -4.484375 C 1.421875 -4.828125 1.78125 -5.03125 2.1875 -5.03125 C 2.8125 -5.03125 3.28125 -4.578125 3.28125 -3.96875 C 3.28125 -3.53125 3.03125 -3.140625 2.53125 -2.859375 L 1.8125 -2.4375 C 0.65625 -1.765625 0.328125 -1.234375 0.265625 0 L 3.9375 0 Z M 3.9375 -0.671875 "/>
</symbol>
</g>
<clipPath id="clip1">
  <path d="M 65.664062 275 L 249.785156 275 L 249.785156 275.617188 L 65.664062 275.617188 Z M 65.664062 275 "/>
</clipPath>
<clipPath id="clip2">
  <path d="M 65.664062 223 L 249.785156 223 L 249.785156 225 L 65.664062 225 Z M 65.664062 223 "/>
</clipPath>
<clipPath id="clip3">
  <path d="M 65.664062 172 L 249.785156 172 L 249.785156 174 L 65.664062 174 Z M 65.664062 172 "/>
</clipPath>
<clipPath id="clip4">
  <path d="M 65.664062 120 L 249.785156 120 L 249.785156 122 L 65.664062 122 Z M 65.664062 120 "/>
</clipPath>
<clipPath id="clip5">
  <path d="M 65.664062 69 L 249.785156 69 L 249.785156 71 L 65.664062 71 Z M 65.664062 69 "/>
</clipPath>
<clipPath id="clip6">
  <path d="M 65.664062 17 L 249.785156 17 L 249.785156 19 L 65.664062 19 Z M 65.664062 17 "/>
</clipPath>
<clipPath id="clip7">
  <path d="M 108 13.824219 L 109 13.824219 L 109 275.617188 L 108 275.617188 Z M 108 13.824219 "/>
</clipPath>
<clipPath id="clip8">
  <path d="M 152 13.824219 L 154 13.824219 L 154 275.617188 L 152 275.617188 Z M 152 13.824219 "/>
</clipPath>
<clipPath id="clip9">
  <path d="M 197 13.824219 L 199 13.824219 L 199 275.617188 L 197 275.617188 Z M 197 13.824219 "/>
</clipPath>
<clipPath id="clip10">
  <path d="M 242 13.824219 L 244 13.824219 L 244 275.617188 L 242 275.617188 Z M 242 13.824219 "/>
</clipPath>
<clipPath id="clip11">
  <path d="M 324.664062 275 L 508.785156 275 L 508.785156 275.617188 L 324.664062 275.617188 Z M 324.664062 275 "/>
</clipPath>
<clipPath id="clip12">
  <path d="M 324.664062 223 L 508.785156 223 L 508.785156 225 L 324.664062 225 Z M 324.664062 223 "/>
</clipPath>
<clipPath id="clip13">
  <path d="M 324.664062 172 L 508.785156 172 L 508.785156 174 L 324.664062 174 Z M 324.664062 172 "/>
</clipPath>
<clipPath id="clip14">
  <path d="M 324.664062 120 L 508.785156 120 L 508.785156 122 L 324.664062 122 Z M 324.664062 120 "/>
</clipPath>
<clipPath id="clip15">
  <path d="M 324.664062 69 L 508.785156 69 L 508.785156 71 L 324.664062 71 Z M 324.664062 69 "/>
</clipPath>
<clipPath id="clip16">
  <path d="M 324.664062 17 L 508.785156 17 L 508.785156 19 L 324.664062 19 Z M 324.664062 17 "/>
</clipPath>
<clipPath id="clip17">
  <path d="M 367 13.824219 L 368 13.824219 L 368 275.617188 L 367 275.617188 Z M 367 13.824219 "/>
</clipPath>
<clipPath id="clip18">
  <path d="M 411 13.824219 L 413 13.824219 L 413 275.617188 L 411 275.617188 Z M 411 13.824219 "/>
</clipPath>
<clipPath id="clip19">
  <path d="M 456 13.824219 L 458 13.824219 L 458 275.617188 L 456 275.617188 Z M 456 13.824219 "/>
</clipPath>
<clipPath id="clip20">
  <path d="M 501 13.824219 L 503 13.824219 L 503 275.617188 L 501 275.617188 Z M 501 13.824219 "/>
</clipPath>
</defs>
<g id="surface451">
<rect x="0" y="0" width="518" height="324" style="fill:rgb(100%,100%,100%);fill-opacity:1;stroke:none;"/>
<path style="fill:none;stroke-width:0.75;stroke-linecap:round;stroke-linejoin:round;stroke:rgb(0%,0%,0%);stroke-opacity:1;stroke-miterlimit:10;" d="M 65.664062 13.824219 L 65.664062 275.617188 L 249.785156 275.617188 "/>
<g clip-path="url(#clip1)" clip-rule="nonzero">
<path style="fill:none;stroke-width:0.75;stroke-linecap:round;stroke-linejoin:round;stroke:rgb(90.980392%,92.941176%,93.72549%);stroke-opacity:1;stroke-dasharray:0.75,2.25;stroke-miterlimit:10;" d="M 65.664062 275.617188 L 249.785156 275.617188 "/>
</g>
<g clip-path="url(#clip2)" clip-rule="nonzero">
<path style="fill:none;stroke-width:0.75;stroke-linecap:round;stroke-linejoin:round;stroke:rgb(90.980392%,92.941176%,93.72549%);stroke-opacity:1;stroke-dasharray:0.75,2.25;stroke-miterlimit:10;" d="M 65.664062 224.164062 L 249.785156 224.164062 "/>
</g>
<g clip-path="url(#clip3)" clip-rule="nonzero">
<path style="fill:none;stroke-width:0.75;stroke-linecap:round;stroke-linejoin:round;stroke:rgb(90.980392%,92.941176%,93.72549%);stroke-opacity:1;stroke-dasharray:0.75,2.25;stroke-miterlimit:10;" d="M 65.664062 172.710938 L 249.785156 172.710938 "/>
</g>
<g clip-path="url(#clip4)" clip-rule="nonzero">
<path style="fill:none;stroke-width:0.75;stroke-linecap:round;stroke-linejoin:round;stroke:rgb(90.980392%,92.941176%,93.72549%);stroke-opacity:1;stroke-dasharray:0.75,2.25;stroke-miterlimit:10;" d="M 65.664062 121.257812 L 249.785156 121.257812 "/>
</g>
<g clip-path="url(#clip5)" clip-rule="nonzero">
<path style="fill:none;stroke-width:0.75;stroke-linecap:round;stroke-linejoin:round;stroke:rgb(90.980392%,92.941176%,93.72549%);stroke-opacity:1;stroke-dasharray:0.75,2.25;stroke-miterlimit:10;" d="M 65.664062 69.804688 L 249.785156 69.804688 "/>
</g>
<g clip-path="url(#clip6)" clip-rule="nonzero">
<path style="fill:none;stroke-width:0.75;stroke-linecap:round;stroke-linejoin:round;stroke:rgb(90.980392%,92.941176%,93.72549%);stroke-opacity:1;stroke-dasharray:0.75,2.25;stroke-miterlimit:10;" d="M 65.664062 18.351562 L 249.785156 18.351562 "/>
</g>
<g clip-path="url(#clip7)" clip-rule="nonzero">
<path style="fill:none;stroke-width:0.75;stroke-linecap:round;stroke-linejoin:round;stroke:rgb(90.980392%,92.941176%,93.72549%);stroke-opacity:1;stroke-dasharray:0.75,2.25;stroke-miterlimit:10;" d="M 108.375 275.617188 L 108.375 13.824219 "/>
</g>
<g clip-path="url(#clip8)" clip-rule="nonzero">
<path style="fill:none;stroke-width:0.75;stroke-linecap:round;stroke-linejoin:round;stroke:rgb(90.980392%,92.941176%,93.72549%);stroke-opacity:1;stroke-dasharray:0.75,2.25;stroke-miterlimit:10;" d="M 153.238281 275.617188 L 153.238281 13.824219 "/>
</g>
<g clip-path="url(#clip9)" clip-rule="nonzero">
<path style="fill:none;stroke-width:0.75;stroke-linecap:round;stroke-linejoin:round;stroke:rgb(90.980392%,92.941176%,93.72549%);stroke-opacity:1;stroke-dasharray:0.75,2.25;stroke-miterlimit:10;" d="M 198.101562 275.617188 L 198.101562 13.824219 "/>
</g>
<g clip-path="url(#clip10)" clip-rule="nonzero">
<path style="fill:none;stroke-width:0.75;stroke-linecap:round;stroke-linejoin:round;stroke:rgb(90.980392%,92.941176%,93.72549%);stroke-opacity:1;stroke-dasharray:0.75,2.25;stroke-miterlimit:10;" d="M 242.964844 275.617188 L 242.964844 13.824219 "/>
</g>
<path style="fill:none;stroke-width:0.75;stroke-linecap:round;stroke-linejoin:round;stroke:rgb(0%,0%,0%);stroke-opacity:1;stroke-miterlimit:10;" d="M 108.375 275.617188 L 242.964844 275.617188 "/>
<path style="fill:none;stroke-width:0.75;stroke-linecap:round;stroke-linejoin:round;stroke:rgb(0%,0%,0%);stroke-opacity:1;stroke-miterlimit:10;" d="M 108.375 275.617188 L 108.375 281.375 "/>
<path style="fill:none;stroke-width:0.75;stroke-linecap:round;stroke-linejoin:round;stroke:rgb(0%,0%,0%);stroke-opacity:1;stroke-miterlimit:10;" d="M 153.238281 275.617188 L 153.238281 281.375 "/>
<path style="fill:none;stroke-width:0.75;stroke-linecap:round;stroke-linejoin:round;stroke:rgb(0%,0%,0%);stroke-opacity:1;stroke-miterlimit:10;" d="M 198.101562 275.617188 L 198.101562 281.375 "/>
<path style="fill:none;stroke-width:0.75;stroke-linecap:round;stroke-linejoin:round;stroke:rgb(0%,0%,0%);stroke-opacity:1;stroke-miterlimit:10;" d="M 242.964844 275.617188 L 242.964844 281.375 "/>
<g style="fill:rgb(32.156863%,38.039216%,41.568627%);fill-opacity:1;">
  <use xlink:href="#glyph0-1" x="98.375" y="293.995117"/>
  <use xlink:href="#glyph0-2" x="103.375" y="293.995117"/>
  <use xlink:href="#glyph0-2" x="108.375" y="293.995117"/>
  <use xlink:href="#glyph0-3" x="113.375" y="293.995117"/>
</g>
<g style="fill:rgb(32.156863%,38.039216%,41.568627%);fill-opacity:1;">
  <use xlink:href="#glyph0-1" x="143.238281" y="293.995117"/>
  <use xlink:href="#glyph0-2" x="148.238281" y="293.995117"/>
  <use xlink:href="#glyph0-4" x="153.238281" y="293.995117"/>
  <use xlink:href="#glyph0-2" x="158.238281" y="293.995117"/>
</g>
<g style="fill:rgb(32.156863%,38.039216%,41.568627%);fill-opacity:1;">
  <use xlink:href="#glyph0-1" x="188.101562" y="293.995117"/>
  <use xlink:href="#glyph0-2" x="193.101562" y="293.995117"/>
  <use xlink:href="#glyph0-4" x="198.101562" y="293.995117"/>
  <use xlink:href="#glyph0-3" x="203.101562" y="293.995117"/>
</g>
<g style="fill:rgb(32.156863%,38.039216%,41.568627%);fill-opacity:1;">
  <use xlink:href="#glyph0-1" x="232.964844" y="293.995117"/>
  <use xlink:href="#glyph0-2" x="237.964844" y="293.995117"/>
  <use xlink:href="#glyph0-1" x="242.964844" y="293.995117"/>
  <use xlink:href="#glyph0-2" x="247.964844" y="293.995117"/>
</g>
<path style="fill:none;stroke-width:0.75;stroke-linecap:round;stroke-linejoin:round;stroke:rgb(0%,0%,0%);stroke-opacity:1;stroke-miterlimit:10;" d="M 65.664062 275.617188 L 65.664062 18.351562 "/>
<path style="fill:none;stroke-width:0.75;stroke-linecap:round;stroke-linejoin:round;stroke:rgb(0%,0%,0%);stroke-opacity:1;stroke-miterlimit:10;" d="M 65.664062 275.617188 L 59.902344 275.617188 "/>
<path style="fill:none;stroke-width:0.75;stroke-linecap:round;stroke-linejoin:round;stroke:rgb(0%,0%,0%);stroke-opacity:1;stroke-miterlimit:10;" d="M 65.664062 224.164062 L 59.902344 224.164062 "/>
<path style="fill:none;stroke-width:0.75;stroke-linecap:round;stroke-linejoin:round;stroke:rgb(0%,0%,0%);stroke-opacity:1;stroke-miterlimit:10;" d="M 65.664062 172.710938 L 59.902344 172.710938 "/>
<path style="fill:none;stroke-width:0.75;stroke-linecap:round;stroke-linejoin:round;stroke:rgb(0%,0%,0%);stroke-opacity:1;stroke-miterlimit:10;" d="M 65.664062 121.257812 L 59.902344 121.257812 "/>
<path style="fill:none;stroke-width:0.75;stroke-linecap:round;stroke-linejoin:round;stroke:rgb(0%,0%,0%);stroke-opacity:1;stroke-miterlimit:10;" d="M 65.664062 69.804688 L 59.902344 69.804688 "/>
<path style="fill:none;stroke-width:0.75;stroke-linecap:round;stroke-linejoin:round;stroke:rgb(0%,0%,0%);stroke-opacity:1;stroke-miterlimit:10;" d="M 65.664062 18.351562 L 59.902344 18.351562 "/>
<g style="fill:rgb(32.156863%,38.039216%,41.568627%);fill-opacity:1;">
  <use xlink:href="#glyph0-2" x="44.449219" y="278.56543"/>
  <use xlink:href="#glyph0-5" x="49.449219" y="278.56543"/>
  <use xlink:href="#glyph0-2" x="51.449219" y="278.56543"/>
</g>
<g style="fill:rgb(32.156863%,38.039216%,41.568627%);fill-opacity:1;">
  <use xlink:href="#glyph0-2" x="44.449219" y="227.112305"/>
  <use xlink:href="#glyph0-5" x="49.449219" y="227.112305"/>
  <use xlink:href="#glyph0-1" x="51.449219" y="227.112305"/>
</g>
<g style="fill:rgb(32.156863%,38.039216%,41.568627%);fill-opacity:1;">
  <use xlink:href="#glyph0-2" x="44.449219" y="175.65918"/>
  <use xlink:href="#glyph0-5" x="49.449219" y="175.65918"/>
  <use xlink:href="#glyph0-6" x="51.449219" y="175.65918"/>
</g>
<g style="fill:rgb(32.156863%,38.039216%,41.568627%);fill-opacity:1;">
  <use xlink:href="#glyph0-2" x="44.449219" y="124.206055"/>
  <use xlink:href="#glyph0-5" x="49.449219" y="124.206055"/>
  <use xlink:href="#glyph0-7" x="51.449219" y="124.206055"/>
</g>
<g style="fill:rgb(32.156863%,38.039216%,41.568627%);fill-opacity:1;">
  <use xlink:href="#glyph0-2" x="44.449219" y="72.75293"/>
  <use xlink:href="#glyph0-5" x="49.449219" y="72.75293"/>
  <use xlink:href="#glyph0-8" x="51.449219" y="72.75293"/>
</g>
<g style="fill:rgb(32.156863%,38.039216%,41.568627%);fill-opacity:1;">
  <use xlink:href="#glyph0-4" x="44.449219" y="21.299805"/>
  <use xlink:href="#glyph0-5" x="49.449219" y="21.299805"/>
  <use xlink:href="#glyph0-2" x="51.449219" y="21.299805"/>
</g>
<g style="fill:rgb(14.117647%,21.176471%,24.705882%);fill-opacity:1;">
  <use xlink:href="#glyph1-1" x="148.222656" y="315.93457"/>
  <use xlink:href="#glyph1-2" x="154.222656" y="315.93457"/>
  <use xlink:href="#glyph1-3" x="159.222656" y="315.93457"/>
  <use xlink:href="#glyph1-4" x="164.222656" y="315.93457"/>
</g>
<g style="fill:rgb(14.117647%,21.176471%,24.705882%);fill-opacity:1;">
  <use xlink:href="#glyph2-1" x="13.125977" y="197.71875"/>
  <use xlink:href="#glyph2-2" x="13.125977" y="191.71875"/>
  <use xlink:href="#glyph2-3" x="13.125977" y="189.71875"/>
  <use xlink:href="#glyph2-4" x="13.125977" y="184.71875"/>
  <use xlink:href="#glyph2-2" x="13.125977" y="179.71875"/>
  <use xlink:href="#glyph2-5" x="13.125977" y="177.71875"/>
  <use xlink:href="#glyph2-6" x="13.125977" y="172.71875"/>
  <use xlink:href="#glyph2-7" x="13.125977" y="167.71875"/>
  <use xlink:href="#glyph2-8" x="13.125977" y="164.71875"/>
  <use xlink:href="#glyph2-9" x="13.125977" y="156.71875"/>
  <use xlink:href="#glyph2-10" x="13.125977" y="151.71875"/>
  <use xlink:href="#glyph2-11" x="13.125977" y="148.71875"/>
  <use xlink:href="#glyph2-12" x="13.125977" y="145.71875"/>
  <use xlink:href="#glyph2-13" x="13.125977" y="140.71875"/>
  <use xlink:href="#glyph2-2" x="13.125977" y="138.71875"/>
  <use xlink:href="#glyph2-11" x="13.125977" y="136.71875"/>
  <use xlink:href="#glyph2-14" x="13.125977" y="133.71875"/>
  <use xlink:href="#glyph2-7" x="13.125977" y="128.71875"/>
  <use xlink:href="#glyph2-15" x="13.125977" y="125.71875"/>
  <use xlink:href="#glyph2-14" x="13.125977" y="122.71875"/>
  <use xlink:href="#glyph2-16" x="13.125977" y="117.71875"/>
  <use xlink:href="#glyph2-12" x="13.125977" y="112.71875"/>
  <use xlink:href="#glyph2-10" x="13.125977" y="107.71875"/>
</g>
<g style="fill:rgb(14.117647%,21.176471%,24.705882%);fill-opacity:1;">
  <use xlink:href="#glyph3-1" x="6.666016" y="104.71875"/>
</g>
<g style="fill:rgb(14.117647%,21.176471%,24.705882%);fill-opacity:1;">
  <use xlink:href="#glyph4-1" x="7.328125" y="98.71875"/>
</g>
<g style="fill:rgb(14.117647%,21.176471%,24.705882%);fill-opacity:1;">
  <use xlink:href="#glyph2-17" x="13.125977" y="94.71875"/>
</g>
<path style="fill:none;stroke-width:1.2;stroke-linecap:round;stroke-linejoin:round;stroke:rgb(9.019608%,42.352941%,50.980392%);stroke-opacity:1;stroke-miterlimit:10;" d="M 72.484375 49.222656 L 81.457031 54.8125 L 90.429688 60.265625 L 99.402344 65.582031 L 108.375 70.769531 L 117.347656 75.824219 L 126.320312 80.757812 L 135.292969 85.570312 L 144.265625 90.261719 L 153.238281 94.839844 L 162.210938 99.300781 L 171.183594 103.65625 L 180.15625 107.898438 L 189.128906 112.042969 L 198.101562 116.078125 L 207.074219 120.019531 L 216.046875 123.859375 L 225.019531 127.609375 L 233.992188 131.261719 L 242.964844 134.824219 "/>
<path style="fill:none;stroke-width:1.2;stroke-linecap:round;stroke-linejoin:round;stroke:rgb(78.039216%,39.607843%,27.058824%);stroke-opacity:1;stroke-miterlimit:10;" d="M 72.484375 28.640625 L 81.457031 34.738281 L 90.429688 40.6875 L 99.402344 46.488281 L 108.375 52.144531 L 117.347656 57.664062 L 126.320312 63.042969 L 135.292969 68.292969 L 144.265625 73.410156 L 153.238281 78.402344 L 162.210938 83.273438 L 171.183594 88.023438 L 180.15625 92.652344 L 189.128906 97.171875 L 198.101562 101.578125 L 207.074219 105.875 L 216.046875 110.066406 L 225.019531 114.152344 L 233.992188 118.140625 L 242.964844 122.027344 "/>
<path style="fill:none;stroke-width:0.75;stroke-linecap:round;stroke-linejoin:round;stroke:rgb(0%,0%,0%);stroke-opacity:1;stroke-miterlimit:10;" d="M 205.636719 19.441406 L 210.128906 19.441406 L 210.128906 23.183594 L 205.636719 23.183594 Z M 205.636719 19.441406 "/>
<path style="fill:none;stroke-width:0.75;stroke-linecap:round;stroke-linejoin:round;stroke:rgb(0%,0%,0%);stroke-opacity:1;stroke-miterlimit:10;" d="M 205.636719 26.929688 L 210.128906 26.929688 L 210.128906 30.671875 L 205.636719 30.671875 Z M 205.636719 26.929688 "/>
<path style="fill:none;stroke-width:0.75;stroke-linecap:round;stroke-linejoin:round;stroke:rgb(9.019608%,42.352941%,50.980392%);stroke-opacity:1;stroke-miterlimit:10;" d="M 210.128906 21.3125 L 221.359375 21.3125 "/>
<path style="fill:none;stroke-width:0.75;stroke-linecap:round;stroke-linejoin:round;stroke:rgb(78.039216%,39.607843%,27.058824%);stroke-opacity:1;stroke-miterlimit:10;" d="M 210.128906 28.800781 L 221.359375 28.800781 "/>
<g style="fill:rgb(0%,0%,0%);fill-opacity:1;">
  <use xlink:href="#glyph5-1" x="226.976562" y="23.361328"/>
  <use xlink:href="#glyph5-2" x="229.976562" y="23.361328"/>
  <use xlink:href="#glyph5-3" x="232.976562" y="23.361328"/>
  <use xlink:href="#glyph5-4" x="235.976562" y="23.361328"/>
  <use xlink:href="#glyph5-5" x="238.976562" y="23.361328"/>
  <use xlink:href="#glyph5-6" x="241.976562" y="23.361328"/>
  <use xlink:href="#glyph5-7" x="242.976562" y="23.361328"/>
  <use xlink:href="#glyph5-4" x="243.976562" y="23.361328"/>
</g>
<g style="fill:rgb(0%,0%,0%);fill-opacity:1;">
  <use xlink:href="#glyph5-8" x="226.976562" y="30.849609"/>
  <use xlink:href="#glyph5-9" x="230.976562" y="30.849609"/>
  <use xlink:href="#glyph5-2" x="233.976562" y="30.849609"/>
  <use xlink:href="#glyph5-7" x="236.976562" y="30.849609"/>
  <use xlink:href="#glyph5-10" x="237.976562" y="30.849609"/>
</g>
<g style="fill:rgb(0%,0%,0%);fill-opacity:1;">
  <use xlink:href="#glyph6-1" x="65.664062" y="10.053711"/>
  <use xlink:href="#glyph6-2" x="71.664062" y="10.053711"/>
  <use xlink:href="#glyph6-3" x="75.664062" y="10.053711"/>
  <use xlink:href="#glyph6-4" x="79.664062" y="10.053711"/>
  <use xlink:href="#glyph6-5" x="81.664062" y="10.053711"/>
  <use xlink:href="#glyph6-6" x="85.664062" y="10.053711"/>
  <use xlink:href="#glyph6-7" x="89.664062" y="10.053711"/>
  <use xlink:href="#glyph6-8" x="91.664062" y="10.053711"/>
</g>
<path style="fill:none;stroke-width:0.75;stroke-linecap:round;stroke-linejoin:round;stroke:rgb(0%,0%,0%);stroke-opacity:1;stroke-miterlimit:10;" d="M 324.664062 13.824219 L 324.664062 275.617188 L 508.785156 275.617188 "/>
<g clip-path="url(#clip11)" clip-rule="nonzero">
<path style="fill:none;stroke-width:0.75;stroke-linecap:round;stroke-linejoin:round;stroke:rgb(90.980392%,92.941176%,93.72549%);stroke-opacity:1;stroke-dasharray:0.75,2.25;stroke-miterlimit:10;" d="M 324.664062 275.617188 L 508.785156 275.617188 "/>
</g>
<g clip-path="url(#clip12)" clip-rule="nonzero">
<path style="fill:none;stroke-width:0.75;stroke-linecap:round;stroke-linejoin:round;stroke:rgb(90.980392%,92.941176%,93.72549%);stroke-opacity:1;stroke-dasharray:0.75,2.25;stroke-miterlimit:10;" d="M 324.664062 224.164062 L 508.785156 224.164062 "/>
</g>
<g clip-path="url(#clip13)" clip-rule="nonzero">
<path style="fill:none;stroke-width:0.75;stroke-linecap:round;stroke-linejoin:round;stroke:rgb(90.980392%,92.941176%,93.72549%);stroke-opacity:1;stroke-dasharray:0.75,2.25;stroke-miterlimit:10;" d="M 324.664062 172.710938 L 508.785156 172.710938 "/>
</g>
<g clip-path="url(#clip14)" clip-rule="nonzero">
<path style="fill:none;stroke-width:0.75;stroke-linecap:round;stroke-linejoin:round;stroke:rgb(90.980392%,92.941176%,93.72549%);stroke-opacity:1;stroke-dasharray:0.75,2.25;stroke-miterlimit:10;" d="M 324.664062 121.257812 L 508.785156 121.257812 "/>
</g>
<g clip-path="url(#clip15)" clip-rule="nonzero">
<path style="fill:none;stroke-width:0.75;stroke-linecap:round;stroke-linejoin:round;stroke:rgb(90.980392%,92.941176%,93.72549%);stroke-opacity:1;stroke-dasharray:0.75,2.25;stroke-miterlimit:10;" d="M 324.664062 69.804688 L 508.785156 69.804688 "/>
</g>
<g clip-path="url(#clip16)" clip-rule="nonzero">
<path style="fill:none;stroke-width:0.75;stroke-linecap:round;stroke-linejoin:round;stroke:rgb(90.980392%,92.941176%,93.72549%);stroke-opacity:1;stroke-dasharray:0.75,2.25;stroke-miterlimit:10;" d="M 324.664062 18.351562 L 508.785156 18.351562 "/>
</g>
<g clip-path="url(#clip17)" clip-rule="nonzero">
<path style="fill:none;stroke-width:0.75;stroke-linecap:round;stroke-linejoin:round;stroke:rgb(90.980392%,92.941176%,93.72549%);stroke-opacity:1;stroke-dasharray:0.75,2.25;stroke-miterlimit:10;" d="M 367.375 275.617188 L 367.375 13.824219 "/>
</g>
<g clip-path="url(#clip18)" clip-rule="nonzero">
<path style="fill:none;stroke-width:0.75;stroke-linecap:round;stroke-linejoin:round;stroke:rgb(90.980392%,92.941176%,93.72549%);stroke-opacity:1;stroke-dasharray:0.75,2.25;stroke-miterlimit:10;" d="M 412.238281 275.617188 L 412.238281 13.824219 "/>
</g>
<g clip-path="url(#clip19)" clip-rule="nonzero">
<path style="fill:none;stroke-width:0.75;stroke-linecap:round;stroke-linejoin:round;stroke:rgb(90.980392%,92.941176%,93.72549%);stroke-opacity:1;stroke-dasharray:0.75,2.25;stroke-miterlimit:10;" d="M 457.101562 275.617188 L 457.101562 13.824219 "/>
</g>
<g clip-path="url(#clip20)" clip-rule="nonzero">
<path style="fill:none;stroke-width:0.75;stroke-linecap:round;stroke-linejoin:round;stroke:rgb(90.980392%,92.941176%,93.72549%);stroke-opacity:1;stroke-dasharray:0.75,2.25;stroke-miterlimit:10;" d="M 501.964844 275.617188 L 501.964844 13.824219 "/>
</g>
<path style="fill:none;stroke-width:0.75;stroke-linecap:round;stroke-linejoin:round;stroke:rgb(0%,0%,0%);stroke-opacity:1;stroke-miterlimit:10;" d="M 367.375 275.617188 L 501.964844 275.617188 "/>
<path style="fill:none;stroke-width:0.75;stroke-linecap:round;stroke-linejoin:round;stroke:rgb(0%,0%,0%);stroke-opacity:1;stroke-miterlimit:10;" d="M 367.375 275.617188 L 367.375 281.375 "/>
<path style="fill:none;stroke-width:0.75;stroke-linecap:round;stroke-linejoin:round;stroke:rgb(0%,0%,0%);stroke-opacity:1;stroke-miterlimit:10;" d="M 412.238281 275.617188 L 412.238281 281.375 "/>
<path style="fill:none;stroke-width:0.75;stroke-linecap:round;stroke-linejoin:round;stroke:rgb(0%,0%,0%);stroke-opacity:1;stroke-miterlimit:10;" d="M 457.101562 275.617188 L 457.101562 281.375 "/>
<path style="fill:none;stroke-width:0.75;stroke-linecap:round;stroke-linejoin:round;stroke:rgb(0%,0%,0%);stroke-opacity:1;stroke-miterlimit:10;" d="M 501.964844 275.617188 L 501.964844 281.375 "/>
<g style="fill:rgb(32.156863%,38.039216%,41.568627%);fill-opacity:1;">
  <use xlink:href="#glyph0-1" x="357.375" y="293.995117"/>
  <use xlink:href="#glyph0-2" x="362.375" y="293.995117"/>
  <use xlink:href="#glyph0-2" x="367.375" y="293.995117"/>
  <use xlink:href="#glyph0-3" x="372.375" y="293.995117"/>
</g>
<g style="fill:rgb(32.156863%,38.039216%,41.568627%);fill-opacity:1;">
  <use xlink:href="#glyph0-1" x="402.238281" y="293.995117"/>
  <use xlink:href="#glyph0-2" x="407.238281" y="293.995117"/>
  <use xlink:href="#glyph0-4" x="412.238281" y="293.995117"/>
  <use xlink:href="#glyph0-2" x="417.238281" y="293.995117"/>
</g>
<g style="fill:rgb(32.156863%,38.039216%,41.568627%);fill-opacity:1;">
  <use xlink:href="#glyph0-1" x="447.101562" y="293.995117"/>
  <use xlink:href="#glyph0-2" x="452.101562" y="293.995117"/>
  <use xlink:href="#glyph0-4" x="457.101562" y="293.995117"/>
  <use xlink:href="#glyph0-3" x="462.101562" y="293.995117"/>
</g>
<g style="fill:rgb(32.156863%,38.039216%,41.568627%);fill-opacity:1;">
  <use xlink:href="#glyph0-1" x="491.964844" y="293.995117"/>
  <use xlink:href="#glyph0-2" x="496.964844" y="293.995117"/>
  <use xlink:href="#glyph0-1" x="501.964844" y="293.995117"/>
  <use xlink:href="#glyph0-2" x="506.964844" y="293.995117"/>
</g>
<path style="fill:none;stroke-width:0.75;stroke-linecap:round;stroke-linejoin:round;stroke:rgb(0%,0%,0%);stroke-opacity:1;stroke-miterlimit:10;" d="M 324.664062 275.617188 L 324.664062 18.351562 "/>
<path style="fill:none;stroke-width:0.75;stroke-linecap:round;stroke-linejoin:round;stroke:rgb(0%,0%,0%);stroke-opacity:1;stroke-miterlimit:10;" d="M 324.664062 275.617188 L 318.902344 275.617188 "/>
<path style="fill:none;stroke-width:0.75;stroke-linecap:round;stroke-linejoin:round;stroke:rgb(0%,0%,0%);stroke-opacity:1;stroke-miterlimit:10;" d="M 324.664062 224.164062 L 318.902344 224.164062 "/>
<path style="fill:none;stroke-width:0.75;stroke-linecap:round;stroke-linejoin:round;stroke:rgb(0%,0%,0%);stroke-opacity:1;stroke-miterlimit:10;" d="M 324.664062 172.710938 L 318.902344 172.710938 "/>
<path style="fill:none;stroke-width:0.75;stroke-linecap:round;stroke-linejoin:round;stroke:rgb(0%,0%,0%);stroke-opacity:1;stroke-miterlimit:10;" d="M 324.664062 121.257812 L 318.902344 121.257812 "/>
<path style="fill:none;stroke-width:0.75;stroke-linecap:round;stroke-linejoin:round;stroke:rgb(0%,0%,0%);stroke-opacity:1;stroke-miterlimit:10;" d="M 324.664062 69.804688 L 318.902344 69.804688 "/>
<path style="fill:none;stroke-width:0.75;stroke-linecap:round;stroke-linejoin:round;stroke:rgb(0%,0%,0%);stroke-opacity:1;stroke-miterlimit:10;" d="M 324.664062 18.351562 L 318.902344 18.351562 "/>
<g style="fill:rgb(32.156863%,38.039216%,41.568627%);fill-opacity:1;">
  <use xlink:href="#glyph0-2" x="303.449219" y="278.56543"/>
  <use xlink:href="#glyph0-5" x="308.449219" y="278.56543"/>
  <use xlink:href="#glyph0-2" x="310.449219" y="278.56543"/>
</g>
<g style="fill:rgb(32.156863%,38.039216%,41.568627%);fill-opacity:1;">
  <use xlink:href="#glyph0-2" x="303.449219" y="227.112305"/>
  <use xlink:href="#glyph0-5" x="308.449219" y="227.112305"/>
  <use xlink:href="#glyph0-1" x="310.449219" y="227.112305"/>
</g>
<g style="fill:rgb(32.156863%,38.039216%,41.568627%);fill-opacity:1;">
  <use xlink:href="#glyph0-2" x="303.449219" y="175.65918"/>
  <use xlink:href="#glyph0-5" x="308.449219" y="175.65918"/>
  <use xlink:href="#glyph0-6" x="310.449219" y="175.65918"/>
</g>
<g style="fill:rgb(32.156863%,38.039216%,41.568627%);fill-opacity:1;">
  <use xlink:href="#glyph0-2" x="303.449219" y="124.206055"/>
  <use xlink:href="#glyph0-5" x="308.449219" y="124.206055"/>
  <use xlink:href="#glyph0-7" x="310.449219" y="124.206055"/>
</g>
<g style="fill:rgb(32.156863%,38.039216%,41.568627%);fill-opacity:1;">
  <use xlink:href="#glyph0-2" x="303.449219" y="72.75293"/>
  <use xlink:href="#glyph0-5" x="308.449219" y="72.75293"/>
  <use xlink:href="#glyph0-8" x="310.449219" y="72.75293"/>
</g>
<g style="fill:rgb(32.156863%,38.039216%,41.568627%);fill-opacity:1;">
  <use xlink:href="#glyph0-4" x="303.449219" y="21.299805"/>
  <use xlink:href="#glyph0-5" x="308.449219" y="21.299805"/>
  <use xlink:href="#glyph0-2" x="310.449219" y="21.299805"/>
</g>
<g style="fill:rgb(14.117647%,21.176471%,24.705882%);fill-opacity:1;">
  <use xlink:href="#glyph1-1" x="407.222656" y="315.93457"/>
  <use xlink:href="#glyph1-2" x="413.222656" y="315.93457"/>
  <use xlink:href="#glyph1-3" x="418.222656" y="315.93457"/>
  <use xlink:href="#glyph1-4" x="423.222656" y="315.93457"/>
</g>
<g style="fill:rgb(14.117647%,21.176471%,24.705882%);fill-opacity:1;">
  <use xlink:href="#glyph2-1" x="272.125977" y="197.71875"/>
  <use xlink:href="#glyph2-2" x="272.125977" y="191.71875"/>
  <use xlink:href="#glyph2-3" x="272.125977" y="189.71875"/>
  <use xlink:href="#glyph2-4" x="272.125977" y="184.71875"/>
  <use xlink:href="#glyph2-2" x="272.125977" y="179.71875"/>
  <use xlink:href="#glyph2-5" x="272.125977" y="177.71875"/>
  <use xlink:href="#glyph2-6" x="272.125977" y="172.71875"/>
  <use xlink:href="#glyph2-7" x="272.125977" y="167.71875"/>
  <use xlink:href="#glyph2-8" x="272.125977" y="164.71875"/>
  <use xlink:href="#glyph2-9" x="272.125977" y="156.71875"/>
  <use xlink:href="#glyph2-10" x="272.125977" y="151.71875"/>
  <use xlink:href="#glyph2-11" x="272.125977" y="148.71875"/>
  <use xlink:href="#glyph2-12" x="272.125977" y="145.71875"/>
  <use xlink:href="#glyph2-13" x="272.125977" y="140.71875"/>
  <use xlink:href="#glyph2-2" x="272.125977" y="138.71875"/>
  <use xlink:href="#glyph2-11" x="272.125977" y="136.71875"/>
  <use xlink:href="#glyph2-14" x="272.125977" y="133.71875"/>
  <use xlink:href="#glyph2-7" x="272.125977" y="128.71875"/>
  <use xlink:href="#glyph2-15" x="272.125977" y="125.71875"/>
  <use xlink:href="#glyph2-14" x="272.125977" y="122.71875"/>
  <use xlink:href="#glyph2-16" x="272.125977" y="117.71875"/>
  <use xlink:href="#glyph2-12" x="272.125977" y="112.71875"/>
  <use xlink:href="#glyph2-10" x="272.125977" y="107.71875"/>
</g>
<g style="fill:rgb(14.117647%,21.176471%,24.705882%);fill-opacity:1;">
  <use xlink:href="#glyph3-1" x="265.666016" y="104.71875"/>
</g>
<g style="fill:rgb(14.117647%,21.176471%,24.705882%);fill-opacity:1;">
  <use xlink:href="#glyph4-1" x="266.328125" y="98.71875"/>
</g>
<g style="fill:rgb(14.117647%,21.176471%,24.705882%);fill-opacity:1;">
  <use xlink:href="#glyph2-17" x="272.125977" y="94.71875"/>
</g>
<path style="fill:none;stroke-width:1.2;stroke-linecap:round;stroke-linejoin:round;stroke:rgb(9.019608%,42.352941%,50.980392%);stroke-opacity:1;stroke-miterlimit:10;" d="M 331.484375 49.222656 L 340.457031 54.8125 L 349.429688 60.265625 L 358.402344 65.582031 L 367.375 70.769531 L 376.347656 75.824219 L 385.320312 80.757812 L 394.292969 85.570312 L 403.265625 90.261719 L 412.238281 94.839844 L 421.210938 99.300781 L 430.183594 103.65625 L 439.15625 107.898438 L 448.128906 112.042969 L 457.101562 116.078125 L 466.074219 120.019531 L 475.046875 123.859375 L 484.019531 127.609375 L 492.992188 131.261719 L 501.964844 134.824219 "/>
<path style="fill:none;stroke-width:1.2;stroke-linecap:round;stroke-linejoin:round;stroke:rgb(78.039216%,39.607843%,27.058824%);stroke-opacity:1;stroke-miterlimit:10;" d="M 331.484375 28.640625 L 340.457031 34.738281 L 349.429688 40.6875 L 358.402344 46.488281 L 367.375 52.144531 L 376.347656 57.664062 L 385.320312 63.042969 L 394.292969 68.292969 L 403.265625 73.410156 L 412.238281 78.402344 L 421.210938 83.273438 L 430.183594 88.023438 L 439.15625 92.652344 L 448.128906 97.171875 L 457.101562 101.578125 L 466.074219 105.875 L 475.046875 110.066406 L 484.019531 114.152344 L 492.992188 118.140625 L 501.964844 122.027344 "/>
<path style="fill:none;stroke-width:0.75;stroke-linecap:round;stroke-linejoin:round;stroke:rgb(0%,0%,0%);stroke-opacity:1;stroke-miterlimit:10;" d="M 464.636719 19.441406 L 469.128906 19.441406 L 469.128906 23.183594 L 464.636719 23.183594 Z M 464.636719 19.441406 "/>
<path style="fill:none;stroke-width:0.75;stroke-linecap:round;stroke-linejoin:round;stroke:rgb(0%,0%,0%);stroke-opacity:1;stroke-miterlimit:10;" d="M 464.636719 26.929688 L 469.128906 26.929688 L 469.128906 30.671875 L 464.636719 30.671875 Z M 464.636719 26.929688 "/>
<path style="fill:none;stroke-width:0.75;stroke-linecap:round;stroke-linejoin:round;stroke:rgb(9.019608%,42.352941%,50.980392%);stroke-opacity:1;stroke-miterlimit:10;" d="M 469.128906 21.3125 L 480.359375 21.3125 "/>
<path style="fill:none;stroke-width:0.75;stroke-linecap:round;stroke-linejoin:round;stroke:rgb(78.039216%,39.607843%,27.058824%);stroke-opacity:1;stroke-miterlimit:10;" d="M 469.128906 28.800781 L 480.359375 28.800781 "/>
<g style="fill:rgb(0%,0%,0%);fill-opacity:1;">
  <use xlink:href="#glyph5-1" x="485.976562" y="23.361328"/>
  <use xlink:href="#glyph5-2" x="488.976562" y="23.361328"/>
  <use xlink:href="#glyph5-3" x="491.976562" y="23.361328"/>
  <use xlink:href="#glyph5-4" x="494.976562" y="23.361328"/>
  <use xlink:href="#glyph5-5" x="497.976562" y="23.361328"/>
  <use xlink:href="#glyph5-6" x="500.976562" y="23.361328"/>
  <use xlink:href="#glyph5-7" x="501.976562" y="23.361328"/>
  <use xlink:href="#glyph5-4" x="502.976562" y="23.361328"/>
</g>
<g style="fill:rgb(0%,0%,0%);fill-opacity:1;">
  <use xlink:href="#glyph5-8" x="485.976562" y="30.849609"/>
  <use xlink:href="#glyph5-9" x="489.976562" y="30.849609"/>
  <use xlink:href="#glyph5-2" x="492.976562" y="30.849609"/>
  <use xlink:href="#glyph5-7" x="495.976562" y="30.849609"/>
  <use xlink:href="#glyph5-10" x="496.976562" y="30.849609"/>
</g>
<g style="fill:rgb(0%,0%,0%);fill-opacity:1;">
  <use xlink:href="#glyph6-1" x="324.664062" y="10.053711"/>
  <use xlink:href="#glyph6-2" x="330.664062" y="10.053711"/>
  <use xlink:href="#glyph6-3" x="334.664062" y="10.053711"/>
  <use xlink:href="#glyph6-4" x="338.664062" y="10.053711"/>
  <use xlink:href="#glyph6-5" x="340.664062" y="10.053711"/>
  <use xlink:href="#glyph6-6" x="344.664062" y="10.053711"/>
  <use xlink:href="#glyph6-7" x="348.664062" y="10.053711"/>
  <use xlink:href="#glyph6-9" x="350.664062" y="10.053711"/>
</g>
</g>
</svg>
