<svg xmlns="http://www.w3.org/2000/svg" viewBox="0 0 360 80" role="img" aria-label="KIMSA Report: Editable assessment reports">
  <defs>
    <linearGradient id="kimsareport-sea" x1="0" y1="0" x2=".65" y2="1">
      <stop stop-color="#e5b797"/>
      <stop offset="1" stop-color="#b27a5e"/>
    </linearGradient>
    <linearGradient id="kimsareport-pearl" x1="0" y1="0" x2=".3" y2="1">
      <stop stop-color="#fff"/>
      <stop offset=".5" stop-color="#f5fafc"/>
      <stop offset="1" stop-color="#dfecef"/>
    </linearGradient>
    <radialGradient id="kimsareport-light" cx=".15" cy="0" r=".9">
      <stop stop-color="#fff" stop-opacity=".57"/>
      <stop offset=".65" stop-color="#fff" stop-opacity=".04"/>
      <stop offset="1" stop-color="#fff" stop-opacity="0"/>
    </radialGradient>
    <linearGradient id="kimsareport-edge" x1="0" y1="0" x2=".6" y2="1">
      <stop stop-color="#fff" stop-opacity=".9"/>
      <stop offset=".5" stop-color="#fff" stop-opacity=".14"/>
      <stop offset="1" stop-color="#fff" stop-opacity=".4"/>
    </linearGradient>
    <filter id="kimsareport-lift" x="-30%" y="-30%" width="160%" height="170%" color-interpolation-filters="sRGB">
      <feDropShadow dx="0" dy="1.3" stdDeviation="1.4" flood-color="#15354d" flood-opacity=".19"/>
    </filter>
  </defs>
  <g transform="translate(0 8)">
    <rect x="1" y="1" width="62" height="62" rx="17" fill="url(#kimsareport-sea)"/>
    <rect x="1.6" y="1.6" width="60.8" height="60.8" rx="16.4" fill="url(#kimsareport-light)" stroke="url(#kimsareport-edge)" stroke-width=".9"/>
    <path d="M7 23V19C7 11 12 7 20 7H39" fill="none" stroke="#fff" stroke-width=".8" stroke-opacity=".24" stroke-linecap="round"/>
    <g filter="url(#kimsareport-lift)" stroke-linejoin="round">
      <path d="M16 18H37L44 25V50Q44 54 40 54H16Q12 54 12 50V22Q12 18 16 18Z" fill="#f8e5d7" fill-opacity=".56" stroke="#fff0e6" stroke-opacity=".6"/>
      <path d="M24 11H39L50 22V46Q50 50 46 50H24Q20 50 20 46V15Q20 11 24 11Z" fill="url(#kimsareport-pearl)"/>
      <path d="M39 11V19Q39 23 43 23H50" fill="#d9c3b4"/>
      <path d="M39 11L50 22H43Q39 22 39 19Z" fill="#f5ece4"/>
      <path d="M28 30H42M28 36H42M28 42H37" stroke="#b8856c" stroke-width="2.5" stroke-linecap="round"/>
    </g>
  </g>
  <text x="82" y="32" font-family="Inter, system-ui, DejaVu Sans, sans-serif" font-size="18" font-weight="500" letter-spacing="1.2" fill="#526b78">KIMSA</text>
  <text x="81" y="65" font-family="Inter, system-ui, DejaVu Sans, sans-serif" font-size="32" font-weight="600" letter-spacing="-.7" fill="#243d49">Report</text>
</svg>
